<?xml version="1.0" encoding="UTF-8"?>
<svg id="Layer_2" data-name="Layer 2" xmlns="http://www.w3.org/2000/svg" viewBox="0 0 101.58 185.64">
  <defs>
    <style>
      .cls-1 {
        fill: #f9f9f8;
      }

      .cls-2 {
        fill: #f8f8f7;
      }

      .cls-3 {
        fill: #fcfcfb;
      }

      .cls-4 {
        fill: #fcfcfc;
      }

      .cls-5 {
        fill: #919191;
      }

      .cls-6 {
        fill: #7e7c7c;
      }

      .cls-7 {
        fill: #999598;
      }

      .cls-8 {
        fill: #a1a1a1;
      }

      .cls-9 {
        fill: #a19fa0;
      }

      .cls-10 {
        fill: #919292;
      }

      .cls-11 {
        fill: #908f92;
      }

      .cls-12 {
        fill: #b3b3b3;
      }

      .cls-13 {
        fill: #bababa;
      }

      .cls-14 {
        fill: #8e8f8f;
      }

      .cls-15 {
        fill: #cdcdcd;
      }

      .cls-16 {
        fill: #a6a6a6;
      }

      .cls-17 {
        fill: #a6a5a7;
      }

      .cls-18 {
        fill: #bcbebf;
      }

      .cls-19 {
        fill: #a7a6a7;
      }

      .cls-20 {
        fill: #b2b2b2;
      }

      .cls-21 {
        fill: #bbbabb;
      }

      .cls-22 {
        fill: #ababad;
      }

      .cls-23 {
        fill: #cbc9cb;
      }

      .cls-24 {
        fill: #dbdad9;
      }

      .cls-25 {
        fill: #a8a7a7;
      }

      .cls-26 {
        fill: #a8a8a8;
      }

      .cls-27 {
        fill: #231f20;
      }

      .cls-28 {
        fill: #807d7e;
      }

      .cls-29 {
        fill: #706f6f;
      }

      .cls-30 {
        fill: #706e6f;
      }

      .cls-31 {
        fill: #a2a1a1;
      }

      .cls-32 {
        fill: #46494a;
      }

      .cls-33 {
        fill: #9b9899;
      }

      .cls-34 {
        fill: #9b999c;
      }

      .cls-35 {
        fill: #565657;
      }

      .cls-36 {
        fill: #565656;
      }

      .cls-37 {
        fill: #7b7a7c;
      }
    </style>
const badge = document.querySelector("#badge");
//console.log(badge);

function logId() {
    console.log(this.id);
}


badge.addEventListener("click", logId);
  </defs>
  <g id="Layer_1-2" data-name="Layer 1">
    <g id="Marley">
      <path class="cls-27" d="m11.66,31.76C14.14,9.94,43.91-8.93,68.82,4.5c15.86,8.55,22.07,21,22.65,37.44.56,15.9.15,31.83.17,47.74.89,1.17.05,1.67-.82,2.17-.6.33-1.11.75-1.51,1.31-.6,8.7-.02,17.36-.28,26.02-.1,3.33.62,6.94-2.54,9.49-4.27,1.1-5.85-1.33-6.32-4.96-.41-3.16-.42-6.34.13-9.5.31-.91.63-1.83.96-2.73.26-9.41-.15-18.84.18-28.25-.37,9.3,0,18.61-.21,27.91-3.36,3.31-5.45,2.71-6.25-2.02-.38-2.28.75-4.71-.33-6.4.07,7.17,1.94,14.65,2.07,22.32.07.44.13.87.2,1.31.01.45,0,.89.02,1.34-.04.45-.1.89-.14,1.33-.88,4.21-.33,8.47-.57,12.71-.16,2.89.08,5.96-2.98,7.73-4.4.96-5.28-1.99-5.87-5.28-.21-2.11-.52-4.22-.66-6.35-.02-.86.08-1.7.26-2.54.39-13.22.22-26.43.07-39.64-.1-.79-.18-1.6-.29-2.39-.08-1.54.24-3.05.45-4.56.27-2.45.33-4.91.06-7.36-.15-1.01-.3-2.03-.5-3.04-.09-.45.11-1.07-.57-1.28.05.51-.06,1-.32,1.49-10.03,10.94-14.38,11.6-26.37,3.98-1.12-.71-2.19-1.51-3.62-1.15-3.3,4.06.44,7.86.39,11.8-.2.78-.47,1.52-.77,2.26-1.5,13.23-.57,26.47-.49,39.71.26.84.43,1.69.54,2.56.13,1.33.05,2.65-.19,3.96-1.25,3.47-.34,8.87-6.81,7.77-4.58-3.95-2.3-9.31-2.91-14.08,0-2.12.05-4.25.08-6.37-.01-1.17.02-2.34.07-3.5.63-5.39.71-10.59-4.94-13.76-.16-.81-.21-1.61-.18-2.43-.02-8.42.05-16.82-.09-25.23.27,9.37-.25,18.76.23,28.14,1.7,4.76,1.65,9.54.3,14.36-2.32,3.34-4.72,3.39-7.2.17-2.24-11.56-.5-23.23-1.08-34.84-.07-1.38,1.83-3.68-1.26-4.28-.76-18.61-.84-37.21.04-55.8Z"/>
      <path class="cls-36" d="m75.62,127.72c-.11-.46-.08-.91.1-1.35.64-2.82-1.48-6.5,2.58-8.26,4.11,4.68,2.28,10.5,2.67,15.76.65,8.92-.04,17.91.33,26.84.26.68.57,1.37.95,1.99,4.12,2.66,8.28,2.37,12.45.17.37-.68.71-1.35.98-2.07.06-16.44.9-32.85-.51-49.24-.18-7.12-5.72-13.05-4.53-20.47.34-.47.68-.95,1.02-1.42,5.76,7.75,7.94,16.64,8.02,26.09.12,13.81.21,27.63-.06,41.44-.12,6.38,2.62,12.35,1.84,18.8-.74,6.08-2.18,9.78-9.88,9.63-25.73-.52-51.48-.17-77.23-.19-12.7,0-15.88-2.62-13.69-15.63,2.76-16.39,1.18-32.7,1.53-49.03.22-10.26,1.33-20.1,6.5-29.1,1.57-2.73,1.43-5.57,1.43-8.47.02-14.88.03-29.75.09-44.63.01-2.35-.29-4.83,1.47-6.82.04,16.01.03,32.02.19,48.03.03,2.74-1.19,5.83,1.47,8.15,1.05,1.6,0,3.09-.22,4.64-3.67,6.43-5.68,13.37-6.33,20.73-1.35,15.84-.45,31.69-.45,47.5.28.67.58,1.34.97,1.95,4.12,2.56,8.26,2.31,12.42.13.37-.67.71-1.33.98-2.04.87-13.91-1-27.9,1.61-41.71,2.21-2.19,3.08-.57,3.68,1.39.45,1.46.32,3.14,1.83,4.12-.06,1.21-.11,2.43-.17,3.64-.32.43-.79.86-.82,1.34-.86,16.63-.2,33.22,1.38,49.75,1.02,1.33,2.32,2.13,4.03,2.15,12.39.16,24.77.08,37.16.05,2.01,0,3.57-.74,4.61-2.49,1.32-17.12,1.76-34.23,1.62-51.37Z"/>
      <path class="cls-3" d="m24.85,182.1c-.09-16.11-.25-32.23-.15-48.34.01-1.94-2.1-5.88,2.93-5.46-.07,1.98-.15,3.96-.22,5.94.72,4.92-3.28,10.53,2.17,14.75,5.37-.65,1.25-6.56,4.61-8.33,1.56-1.63,2.75-4.77,5.45-3.53,3.9,1.79.37,5.75,1.63,7.47-.01,2.09,1.4.8.39,1.13-.15.05-.3-.19-.23-.68.88-5.7.1-9.77-7.25-7.43l.14-.17c-1.35-14.77-1.53-29.54.12-44.31.29-.3.63-.51,1.03-.63,1.11-1.38,2.35-2.28,4.17-1.23,5.76,9.32,7.38,20.19,11.23,30.22.45,1.16.17,2.63.71,2.98,1.45-10.98,6.21-21.2,10.7-31.44,1.02-2.32,3.52-3.37,5.54-.3l-.22.33c1.58,14.78,1.44,29.57.09,44.36l.19.26c-5.28-.99-6.93,1.86-6.87,6.4.95-2.07.2-4.98,3.23-5.75,2.8.03,3.84,2.13,4.91,4.18-.2,2.78-.32,5.53,3.32,6.27,3.8.25,2.26-2.69,2.44-4.36.59-5.47-.9-11.06.84-16.48,0,0-.12-.24-.12-.24,2,.69,1.69,2.4,1.69,3.92-.06,16.81-.14,33.62-.22,50.43-17.41,1.54-34.82,1.5-52.23.03Z"/>
      <path class="cls-18" d="m67.59,70.11c-13.33,11.45-21.44,10.77-33.21.22-1.73-12.78-.98-25.58-.38-38.38.6-3.37,1.05-6.78,1.85-10.11,1.9-7.91,6.64-12.32,15.16-12.14,8.94.2,12.98,3.28,15.56,12.75.83,3.02.99,6.23,1.46,9.35.54,12.78,1.38,25.56-.44,38.31Z"/>
      <path class="cls-4" d="m90.62,91.1c2.84,6.1,5.76,12.18,6.12,19.08.62,18.16,1.22,36.32-.29,54.48l.06.09c-5.34,1.09-10.68,1.22-16.01-.07h-.01c-1.72-13.29-.17-26.65-.87-39.95-.11-2.05,2.27-5.47-2.14-6.21-.61,2.62.75,5.67-1.77,7.86,0,0,.29-.41.29-.41-2-2.25-.79-4.95-1.03-7.44-.53-5.56,1.91-7.06,6.89-4.81.04,3.43.16,6.86.11,10.29-.05,3.43,1.22,5.01,4.78,3.86,2.11-10.46.27-21.05,1.05-31.55.16-2.15-2.18-5.45,1.99-6.48.17.49.44.91.81,1.26Z"/>
      <path class="cls-4" d="m5.19,111.74c.22-7.5,2.49-14.33,6.75-20.5,4.32.74,2.12,4.12,2.24,6.23.55,9.62-.56,19.29.65,28.91,1.69,2.48,3.45,2.85,5.3.16,1.27-.13,2.07.49,2.04,1.72-.31,12.13,1.07,24.29-.71,36.39l.05.06c-5.35,1.23-10.7,1.09-16.06.07l.05-.1c-1.42-17.64-.85-35.29-.32-52.95Z"/>
      <path class="cls-18" d="m34.54,79.01c3.83-1.6,6,1.39,8.16,3.39,5.77,5.36,11.15,4.73,16.69-.21,2.16-1.93,4.52-3.65,6.79-5.46,1.83,2.43,1.51,5.15.32,7.52-5.33,10.62-8.42,22.1-12.88,33.05-.51,1.25-1.27,2.21-3.12,3.32-5.82-12.73-7.86-26.55-15.15-38.17-.55-1.08-1.11-2.16-.81-3.44Z"/>
      <path class="cls-35" d="m35.25,79.58c4.81,3.29,5.19,8.92,6.94,13.71,3.08,8.45,5.6,17.1,9,27.7,5.28-15.89,11.32-29.63,14.98-44.26q1.93,0,2.93,3.69c-1.05,3.1-2.56,6.21.25,9.2-.51,1.03-1.03,2.07-1.54,3.1-3.7-2.27-4.18.27-5.1,3.07-2.83,8.54-5.95,16.99-8.99,25.46-.69,1.94-.96,4.12-3.15,5.72-3.95-11.95-7.85-23.74-11.75-35.53-4.57-2.94-5.42-7-3.57-11.87Z"/>
      <path class="cls-8" d="m21.47,164.65c-.02-10.49,0-20.97-.1-31.46-.02-2.25.93-4.77-1.24-6.65-.02-4.83-.04-9.66-.06-14.49.42-.74.99-.89,1.72-.47l-.29.39c.39,2.48,4.56,3.32,2.9,6.69-2.81,12.28-.44,24.75-1.35,37.09-.22,2.99,1.48,6.4-1.58,8.9Z"/>
      <path class="cls-21" d="m67.69,137.43c-.03-14.79-.06-29.57-.09-44.36,1.37.64,1.8,1.82,1.79,3.22-.02,12.96-.06,25.92-.08,38.88,0,1.14-.36,2.02-1.62,2.26Z"/>
      <path class="cls-9" d="m34.44,93.13c-.04,14.77-.08,29.54-.12,44.31-2.23-.54-1.64-2.38-1.64-3.82-.04-11.87-.03-23.75-.01-35.62,0-1.82-.26-3.77,1.77-4.86Z"/>
      <path class="cls-15" d="m14.83,126.37c-2.8-8.63-.58-17.52-1.35-26.26-.26-2.99,1.21-6.32-1.54-8.88.46-1.1.92-2.2,1.38-3.3,2.77-.26,1.77,1.96,1.77,3.08,0,11.78-.15,23.57-.26,35.35Z"/>
      <path class="cls-31" d="m89.81,89.84c-2.94,9.58-.53,19.4-1.34,29.07-.26,3.03,1.29,6.44-1.7,8.96.04-11.87.03-23.74.22-35.61.02-1.18-1.66-5.86,2.83-2.42Z"/>
      <path class="cls-37" d="m33.99,31.95c.13,12.79.25,25.59.38,38.38-3.62-4.96-1.58-10.62-1.59-15.9-.03-7.48-1.46-15.12,1.22-22.48Z"/>
      <path class="cls-11" d="m67.59,70.11c.15-12.77.29-25.54.44-38.31,1.8,12.79,2.89,25.58-.44,38.31Z"/>
      <path class="cls-24" d="m24.4,118.66c-1.23-2.11-4.16-3.5-2.9-6.69,10.81-.11,4.93,8.1,6.31,12.69q-3.35.41-3.41-5.99Z"/>
      <path class="cls-34" d="m81.88,113.71c-11.35-.42-4.63,7.82-5.87,12.25-4.22-2.17-1.64-5.95-1.88-8.92-.43-5.49-.12-11.05-.12-17.64,2.43,3.3,1.4,5.91,1.48,8.32.11,3.32,1.04,5.13,4.71,4.05.72-.72,1.34-.64,1.85.24-.06.57-.12,1.14-.18,1.71Z"/>
      <path class="cls-7" d="m35.25,79.58c.69,4.11,1.42,8.21,3.57,11.87-1.12.35-2.24.69-3.36,1.04-4.23-4.23-4.16-8.75-.93-13.49.26.16.5.35.71.57Z"/>
      <path class="cls-28" d="m82.06,111.99c-.62-.08-1.24-.16-1.85-.24v-30.07h1.85v30.31Z"/>
      <path class="cls-6" d="m21.79,111.58c-.57.16-1.15.31-1.72.47v-30.57c.57,0,1.15,0,1.72.01v30.09Z"/>
      <path class="cls-29" d="m34.18,137.61c2.68-.73,6.97-3.92,7.69-1.7,1.44,4.43.43,9.65-.14,14.56-2.23-3.75-.73-7.91-1.55-11.79-2.87-2.01-3.58,2.6-6,1.97,0-1.01,0-2.03,0-3.04Z"/>
      <path class="cls-30" d="m59.91,150.04c-.03-2.32-.08-4.65-.09-6.97q-.07-8.83,8.06-5.37c.62,1.56,2.15,2.88,1.27,4.83-1.46-1.23-2.93-2.46-4.39-3.69-4.32.24-1.91,3.62-2.62,5.56-.69,1.9,1.77,5.05-2.22,5.65Z"/>
      <path class="cls-33" d="m75.75,127.96c.02,6.74.19,13.48.01,20.21-.11,4.01-1.49,4.1-3.29.63,3.3-4.33,1.1-9.37,1.79-14.03.34-2.31-1.77-5.14,1.49-6.81Z"/>
      <path class="cls-12" d="m29.58,148.98c-.75,3.42-2.74,2.4-2.85.22-.27-4.96-1.8-10.1.69-14.97,1.51,4.8-1.28,10.23,2.17,14.75Z"/>
      <path class="cls-23" d="m69.36,89.64c-6.97-2.88-2.09-6.08-.25-9.2.08,3.07.17,6.14.25,9.2Z"/>
      <path class="cls-1" d="m2.73,177.18c-.86-5.98-.91-10.34,7.76-9.62,11.07.91,11.12.22,10.83,9.74-6.21,1.41-12.41,1.66-18.59-.12Z"/>
      <path class="cls-2" d="m80.63,168.03c3.63-.08,7.25-.24,10.88-.23,9.09.02,9.09.05,6.78,9.89-3.37,1.04-6.83.47-10.25.49-9.27.06-9.3-.04-7.41-10.15Z"/>
      <path class="cls-19" d="m96.45,164.65c.1-18.16.19-36.32.29-54.48,2.51,4.73,1.09,9.83,1.21,14.74.27,10.82.18,21.66.03,32.49-.03,2.43,1.31,5.34-1.53,7.25Z"/>
      <path class="cls-20" d="m24.85,182.1c17.41-.01,34.82-.02,52.23-.03-.31,1.19-1.17,1.67-2.31,1.67-15.85,0-31.7,0-47.56-.03-1.13,0-2.01-.44-2.37-1.61Z"/>
      <path class="cls-16" d="m5.19,111.74c.11,17.65.21,35.3.32,52.95-2.11-1.16-1.55-3.21-1.47-4.94.7-16-1.57-32.06,1.15-48.01Z"/>
      <path class="cls-14" d="m77.49,118.5c5.26-1.58,3.09,2.7,3.11,4.42.11,13.92-.03,27.83-.1,41.75-3.37-4.47-1.04-9.58-1.53-14.37-1.07-10.56,1.82-21.33-1.48-31.8Z"/>
      <path class="cls-25" d="m21.5,181.36c-5.32,2.82-10.66,2.62-16.1,0h16.1Z"/>
      <path class="cls-17" d="m80.45,181.79c5.15-1.38,10.39-1.63,17.78-.26-7.27,2.94-12.46,2.32-17.78.26Z"/>
      <path class="cls-22" d="m80.63,168.03c-1.8,7.75,1.36,10.56,9.02,9.47,2.81-.4,5.75.1,8.63.19-5,2.46-10.54,1.8-15.43.93-7.24-1.29-4.12-6.45-2.23-10.59Z"/>
      <path class="cls-26" d="m2.73,177.18c6.2.04,12.4.08,18.59.12-6.21,2.47-12.41,2.75-18.59-.12Z"/>
      <path class="cls-5" d="m80.51,164.67c5.34.02,10.67.05,16.01.07-5.35,2.48-10.68,2.65-16.01-.07Z"/>
      <path class="cls-10" d="m5.46,164.78c5.35-.02,10.71-.05,16.06-.07-5.34,2.61-10.69,2.52-16.06.07Z"/>
      <path class="cls-13" d="m59.91,150.04c2.65-2.59.93-5.88,1.37-8.82.32-2.15.25-4.57,3.46-2.39-3.16,2.6-1.15,6.18-1.79,9.26-.32,1.55.3,4.96-3.04,1.95Z"/>
      <path class="cls-32" d="m40.57,64.51c1.53-6.2,4.25-9.65,9.52-10.16,5.92-.57,8.73,3.27,11.51,9.49-10.64-8.33-11.24-8.31-21.03.67Z"/>
    </g>
  </g>
</svg>