<?xml version="1.0" encoding="UTF-8"?>
<svg id="Layer_2" data-name="Layer 2" xmlns="http://www.w3.org/2000/svg" viewBox="0 0 97.68 180.81">
  <defs>
    <style>
      .cls-1 {
        fill: #fefefe;
      }

      .cls-2 {
        fill: #fbfbfa;
      }

      .cls-3 {
        fill: #fcfbfb;
      }

      .cls-4 {
        fill: #fdfdfc;
      }

      .cls-5 {
        fill: #fdfdfd;
      }

      .cls-6 {
        fill: #686867;
      }

      .cls-7 {
        fill: #9e9e9e;
      }

      .cls-8 {
        fill: #b3b3b3;
      }

      .cls-9 {
        fill: #b6b6b6;
      }

      .cls-10 {
        fill: #666665;
      }

      .cls-11 {
        fill: #666565;
      }

      .cls-12 {
        fill: #bababb;
      }

      .cls-13 {
        fill: #bbbaba;
      }

      .cls-14 {
        fill: #a4a4a4;
      }

      .cls-15 {
        fill: #c7c7c7;
      }

      .cls-16 {
        fill: #d2d3d3;
      }

      .cls-17 {
        fill: #c3c2c2;
      }

      .cls-18 {
        fill: #d7d8d7;
      }

      .cls-19 {
        fill: #232323;
      }

      .cls-20 {
        fill: #454545;
      }

      .cls-21 {
        fill: #727272;
      }

      .cls-22 {
        fill: #5b5b5a;
      }

      .cls-23 {
        fill: #2e2e2e;
      }

      .cls-24 {
        fill: #4c4c4c;
      }

      .cls-25 {
        fill: #767676;
      }
    </style>
  </defs>
  <g id="Layer_1-2" data-name="Layer 1">
    <g id="Mercury">
      <path class="cls-25" d="m1.95,179.03c-3.87-4.3-.42-9.6-1.95-14.21,0-13.84,0-27.67,0-41.51,1.19-6.97-1.31-14.22,1.61-21.06,1.97.98,2.9,2.73,3.51,4.72,1.35,22.4,1.2,44.8.13,67.22-.53,2-1.44,3.75-3.3,4.85Z"/>
      <path class="cls-8" d="m73.95,53.05c-.55,1.64-1.09,3.28-1.64,4.92-4.27-4.86-1.78-10.77-2.51-16.18,1.07-7.42-2.34-15.34,2.46-22.36.48.56.95,1.12,1.43,1.68.09,10.64.18,21.29.26,31.93Z"/>
      <path class="cls-20" d="m3.16,105.63c-.52-1.13-1.04-2.26-1.55-3.39,2.07-14.83,9.53-26.04,22.52-33.53.76.61,1.3,1.37,1.65,2.28.99,9.22.87,18.43-.03,27.68-.68,6.95-2.9,14.24,2.46,20.53,1,1.18.5,2.24,0,3.57-6.25,16.63-3.08,33.64-1.88,50.54,2.21,2.67,5.27,2.02,8.09,2.03,13.41.05,26.82.03,40.22,0,1.42-.02,2.83-.02,4.24,0,14.87.08,15,.08,14.84-14.59-.21-18.85.74-37.71-.57-56.55-.42-1.8-.58-3.62-.22-5.45.44-1.31.91-2.6,2.69-2.45,2.54,6.91,2.01,14.12,2,21.26-.03,20.45-.11,40.89-.17,61.34-1.23,1.41-2.91,1.05-4.45,1.05-29.11.02-58.22.02-87.33.01-1.33,0-2.65.01-3.87-.61l.15-.31c.43-.97.86-1.94,1.29-2.91.46-.1.92-.19,1.38-.29q14.17-1.26,14.18-15.68c.03-19.65-.11-39.3.06-58.93,1.4-7.76,2.36-15.56,1.31-24.34-6.42,6.06-10.96,12.34-13.25,20.22-.87,2.98-.85,6.43-3.74,8.54Z"/>
      <path class="cls-19" d="m72.26,19.44c-.14,7.44-.29,14.88-.43,22.33-.84.52-1.58.41-2.23-.34-3.58-5.19-2.68-11.16-2.9-16.93-.4-10.57-3.33-13.15-13.83-11.78-3.19.41-6.28.39-9.47.02-8.24-.94-11.85,2.26-12.04,10.58-.09,4.22.55,8.49-1.31,12.52-.49,1.05-1.25,1.63-2.48,1.34-1.8-7.57-1.09-15.18-.36-22.78.79-7.79,6.06-11.02,12.86-12.69,6.96-.76,13.91-.94,20.86.11,9.04,2.49,10.03,10.16,11.33,17.63Z"/>
      <path class="cls-22" d="m70.69,41.8c.38.01.76,0,1.14-.04.16,5.4.32,10.81.48,16.21-.73,3.68-4.55,7.87,1.72,10.39-.07.78-.25,1.53-.56,2.25-1.88,5.35-.41,10.95-1.16,16.39-3.69,12.2-10.39,18.13-21.48,19.01-9,.72-18.82-4.89-22.87-12.9-1.98-3.93-2.09-8.09-2.23-12.35-.11-3.32,1.16-6.92-1.41-9.91-.07-.72-.13-1.43-.2-2.15.89-2.32,5.18-1.95,4.42-5.57.26-.3.51-.6.77-.9,4.35,1.22,6.43,3.97,5.77,8.57-2.67.72-4.22,1.82-4.29,5.23-.2,9.7,2.77,17.39,11.83,21.93,4.37,1.44,8.74,1.23,13.1,0,13-4.71,11-15.75,11.16-26.04-2.18.12-4.03,2.04-6.13.48-.42-.74-.52-1.51-.3-2.33,5.15-6.65,9.05-13.7,8.06-22.6-.23-2.05.16-4.29,2.18-5.69Z"/>
      <path class="cls-20" d="m27.21,14.38c1.27,7.5-1.78,15.3,1.54,22.66,1.09.86,1.36,2.05,1.34,3.35-.78,5.68-1.07,11.35.14,17.02.31,1.68.33,3.32-.6,4.85-.48.14-.84.43-1.08.87-.87-1.87-2.49-3.74-2.49-5.6.06-14.39-2.07-28.85,1.15-43.15Z"/>
      <path class="cls-9" d="m60.94,1.8c-6.95-.04-13.9-.08-20.86-.11,6.96-2.17,13.92-2.37,20.86.11Z"/>
      <path class="cls-18" d="m1.8,179.34c31.89-.15,63.77-.3,95.66-.45-1.28,2.4-3.58,1.86-5.61,1.87-28.3.03-56.6.03-84.9.02-1.84,0-3.74.16-5.14-1.44Z"/>
      <path class="cls-24" d="m74.03,68.36c2.03.63,3.7,1.77,4.9,3.55-.17.75-.43,1.47-.76,2.16-1.47,6.91-1.25,13.82.08,20.73.3,1.75.26,3.45-.53,5.09-.95,1.23-1.98,1.94-3.36.55-5.2-9.35-1.22-19.35-2.04-29.01.3-.9.76-1.71,1.38-2.44l.33-.63Z"/>
      <path class="cls-11" d="m95.63,96.3c-.45.54-.9,1.09-1.35,1.63-5.59-4.06-6.93-10.4-8.81-16.45.2-.79.69-1.35,1.42-1.7,4.9,4.45,7.25,10.26,8.74,16.52Z"/>
      <path class="cls-6" d="m78.93,71.91c3.45,1.81,6.39,4.15,7.97,7.86-.37.33-.74.64-1.13.95-3.65-.93-6.27-3.16-8.09-6.41-.04-.74.17-1.39.68-1.94l.56-.46Z"/>
      <path class="cls-4" d="m3.16,105.63c1.23-13.36,7.36-24.01,19.14-33.67-.31,10.07,1.34,18.73-1.62,27.33-1.15,22.27-.17,44.55-.5,66.83-.18,11.93,1.69,10.53-10.49,10.62-2.07.02-4.26.55-6.19-.79,0,0-.27.16-.27.16-.02-23.49-.05-46.99-.07-70.48Z"/>
      <path class="cls-1" d="m73.41,70.81c1.13,9.98-1.46,20.22,2.1,30.03,3.19,6.05,3.19,12.62.13,18.19-1.11,2.02-3,1.7.04,3.34,1.34.73,1.55,2.74,1.59,4.34.32,15.13.4,30.25-.05,45.38-.05,1.61-.67,3.11-1.92,4.25-17.48.44-34.96,1.25-52.42-.41-.09-16.21.05-32.43-.4-48.63-.13-4.69,2.2-5.71,6.36-6.45-6.37.14-6.33-3.64-6.31-7.93.07-14.04,2.99-27.96,1.79-42.05,1.11-.61,2.53-1.71,2.71.63.23,2.9.09,5.82.11,8.73.08,12.91,7.05,21.72,18.77,23.74,10.93,1.88,20.76-4.96,24.8-17.26,1.2-4,.18-8.11.62-12.13.15-1.43-1.12-3.92,2.08-3.76Z"/>
      <path class="cls-3" d="m78.31,73.97c2.49,2.25,4.98,4.5,7.46,6.75,2.84,5.73,5.68,11.47,8.52,17.2.1,1.45.2,2.89.3,4.34,1.29,23.34.19,46.69.61,70.04.06,3.59-1.54,4.68-4.8,4.47-3.96-.25-7.96.4-11.9-.41-2.17-2.14-1.63-4.92-1.62-7.5.05-23.25-.27-46.49.13-69.74-.17-1.45-.34-2.9-.5-4.34-.96-5.91-.24-11.86-.4-17.79-.04-1.43-.3-3.31,2.2-3.03Z"/>
      <path class="cls-21" d="m77.01,99.13c2.37,2.46,1.37,5.54,1.39,8.34.15,22.8.18,45.61.25,68.41.42.35.56.7.41,1.04-.15.34-.3.5-.44.5-1.2-.01-2.4-.02-3.6-.03-.4-.32-.55-.65-.43-.98.12-.34.25-.51.38-.51.09-16.08.11-32.17.31-48.25.05-3.97-.4-7.04-6.31-5.75,11.09-5.15,4.15-14.41,6.54-21.07.5-.57,1-1.13,1.5-1.7Z"/>
      <path class="cls-12" d="m3.51,175.95q15.89.52,15.89-14.86c0-17.79-.05-35.58.04-53.37.01-2.83-.87-5.88,1.25-8.43.11,24.13.15,48.25.39,72.38.04,4.29-1.09,6.74-5.77,5.98-3.92-.64-8.29,1.78-11.8-1.7Z"/>
      <path class="cls-17" d="m78.62,177.43c-.17-.52-.16-1.03.03-1.54q15.74.49,15.75-14.91c.04-19.57.12-39.14.19-58.7,2.14,2.53,1.31,5.59,1.32,8.42.09,19.15-.33,38.31.24,57.44.23,7.66-1.77,10.85-9.59,9.56-2.59-.43-5.3-.19-7.95-.25Z"/>
      <path class="cls-16" d="m74.97,175.9c.19.49.21.99.05,1.49-15.84.05-31.69.13-47.53.08-1.56,0-3.83,1.15-4.6-1.56,17.36,0,34.73-.01,52.09-.02Z"/>
      <path class="cls-5" d="m29.63,62.27c-.29-1.38-.58-2.77-.87-4.15-.83-6.01-.98-12.02.08-18.02-.03-1.02-.06-2.03-.09-3.05.18-5.08.49-10.15.5-15.23.02-8.45,5.63-13.86,13.51-11.54,4.15,1.23,7.55.57,11.39-.05,10.79-1.73,15.83,2.69,14.69,13.53-.66,6.28.85,12.07,1.85,18.04-.2,10.71.82,21.83-9.78,29.04-6.51,6.64-15.13,6.98-24.76.97-.24-.37-.47-.74-.7-1.11-.75-3.63-4.1-5.47-5.82-8.43Z"/>
      <path class="cls-2" d="m61.07,73.04c2.14-1.49,4.29-2.97,6.43-4.47,4.11,15.3-.28,29.03-11.3,30.85-4.82-.07-9.64.9-14.46-.02-8.14-2.08-11.15-8.45-12.22-15.76-.71-4.84-.13-9.86-.13-14.58,2.93-1.21,3.68,2.71,6.08,1.63,0,0-.14-.13-.14-.13,8.01,6.79,16.86,4.85,25.75,2.48Z"/>
      <path class="cls-10" d="m61.07,73.04c-10.91,5.71-19.06,4.93-25.75-2.48,8.5,3.04,17.01,5.36,25.6.27.05.74.1,1.47.15,2.21Z"/>
      <path class="cls-15" d="m41.73,99.41c4.82-.91,9.64-2.36,14.46.02-4.82,2.64-9.64,2.21-14.46-.02Z"/>
      <path class="cls-14" d="m73.41,70.81c-3.47,4.86.75,11.03-2.69,15.9-.06-4.46-.08-8.92-.21-13.38-.07-2.35.39-4.17,3.19-4.34-.1.61-.19,1.21-.29,1.82Z"/>
      <path class="cls-13" d="m28.84,40.1c-.03,6.01-.05,12.01-.08,18.02-2.31-6.02-2.09-12.02.08-18.02Z"/>
      <path class="cls-7" d="m78.31,73.97c-3.18,6.71-.43,13.94-1.8,20.82-2.76-6.75-.76-13.76-1.08-20.64-.08-1.65,1.71-1.57,2.94-1.77-.02.54-.04,1.07-.06,1.6Z"/>
      <path class="cls-23" d="m35.53,57.7c7.79-10.3,21.44-10.18,29.7.25-10.36-.51-20.04-3.7-29.7-.25Z"/>
    </g>
  </g>
</svg>