<?xml version="1.0" encoding="UTF-8"?>
<svg id="Layer_2" data-name="Layer 2" xmlns="http://www.w3.org/2000/svg" viewBox="0 0 126.21 199.7">
  <defs>
    <style>
      .cls-1 {
        fill: #f6f5f5;
      }

      .cls-2 {
        fill: #f7f6f6;
      }

      .cls-3 {
        fill: #f9f8f8;
      }

      .cls-4 {
        fill: #ebeae9;
      }

      .cls-5 {
        fill: #eaebec;
      }

      .cls-6 {
        fill: #eae9e9;
      }

      .cls-7 {
        fill: #f4f3f3;
      }

      .cls-8 {
        fill: #f5f4f4;
      }

      .cls-9 {
        fill: #fcfcfc;
      }

      .cls-10 {
        fill: #ececec;
      }

      .cls-11 {
        fill: #6c6a6a;
      }

      .cls-12 {
        fill: #9c9c9e;
      }

      .cls-13 {
        fill: #c1c0c0;
      }

      .cls-14 {
        fill: #b7babc;
      }

      .cls-15 {
        fill: #8f8f8f;
      }

      .cls-16 {
        fill: #8e8e8e;
      }

      .cls-17 {
        fill: #b1afaf;
      }

      .cls-18 {
        fill: #a9a9a9;
      }

      .cls-19 {
        fill: #aaa;
      }

      .cls-20 {
        fill: #b2b3b5;
      }

      .cls-21 {
        fill: #bdbfc0;
      }

      .cls-22 {
        fill: #ababab;
      }

      .cls-23 {
        fill: #bebebe;
      }

      .cls-24 {
        fill: #cccccb;
      }

      .cls-25 {
        fill: #d7d6d5;
      }

      .cls-26 {
        fill: #d7d6d6;
      }

      .cls-27 {
        fill: #231f20;
      }

      .cls-28 {
        fill: #3e3f40;
      }

      .cls-29 {
        fill: #898989;
      }

      .cls-30 {
        fill: #6d6d6c;
      }

      .cls-31 {
        fill: #3d3f3f;
      }

      .cls-32 {
        fill: #726e70;
      }

      .cls-33 {
        fill: #515253;
      }
    </style>
  </defs>
  <g id="Layer_1-2" data-name="Layer 1">
    <g id="Jimi">
      <path class="cls-27" d="m53.01,76.77c-9.2-6.78-16.4-14.92-18.06-26.79-.84-5.52-.82-11.05-.01-16.58C38.59,14.96,54.15.76,71.9.05c20.69-.83,37.53,9.48,43.05,29.38.43,1.56,1.11,2.85,1.75,4.23,1.02,5.35,1.1,10.7-.04,16.04-2.57,10.3-7.81,18.89-16.28,25.41-5.02-1.54-2.96-5.86-3.52-9.11-1.1-6.49,2.16-13.46-2.18-19.56-12.03-1.61-24.03-1.46-36.01-.01-3.02,2.35-1.9,5.71-2.12,8.72-.51,6.96,1.13,14.04-1.23,20.9-.56.9-1.33,1.14-2.31.72Z"/>
      <path class="cls-28" d="m53.01,76.77c.33-.09.65-.06.96.07.67-.67,1.43-.79,2.28-.36,1.98,1.53,2.68,3.91,3.91,5.94,4.49,7.41,12.38,11.05,20.29,9.36,8.35-1.79,14.08-8.48,14.74-17.6.7-9.54-.65-19.14.76-28.67.35-.77.8-1.48,1.34-2.13,3.65,4.33,1.1,9.45,1.77,14.16.83,5.83-1.45,11.9,1.32,17.59-.24,1.02-.3,2.13-.76,3.04-2.79,5.53-1.62,8.61,4.15,12.13,12.56,7.66,18.89,19.94,21.1,34.37.5,25.02,1.3,50.04-.43,75.04-31.83-.02-63.66-.04-95.49-.06-2.02-10.87-.34-21.84-.9-32.74,1.8-6,5.43-2.67,8.05-1.22,12.3,6.82,24.98,13.3,31.02,27.3.42.97,1.46,1.51,2.35,2.09,12.39,1.36,24.76,1.79,37.08-.25,3.77-10.5,1.78-17.17-7.3-24.27-5.21-4.07-11.43-6.7-16.04-11.67-3.45-3.72-6.89-7.36-9.06-12.17.39,4.53,1.69,8.99,1.32,13.54-.44,5.39,3.23,8.71,5.87,12.63,2.01,2.97.68,5.54-1.63,7.76-2.96,2.84-5.79,2.01-8.41-.43-11.22-10.4-26.51-11.21-39.74-16.84-1.01-.43-2,.42-2.72,1.25-.52.67-1.15.78-1.86.33-3.69-2.39-2.69-4.57.3-6.66,1.27-9.07,1.31-18.13-.03-27.19-13.7-2.14-17.15-15.27-25.08-23.58-1.28-1.34-3.52-3.18-1.08-5.36,2.42-2.16,4.21-6.73,8.21-4.84,5.77,2.74,13.81,3.43,13.58,13.05-.07,3.06,2.81,5.53,5.62,7.98,2.63-5.18,5-10.32,7.79-15.21,2.79-4.89,6.58-9.28,11.53-11.81,6.75-3.45,8.65-7.85,5.19-14.57Z"/>
      <path class="cls-13" d="m124.43,199.7c.14-25.01.28-50.03.43-75.04,1.56,1.77,1.28,3.93,1.28,6.03,0,21.11.02,42.22-.02,63.34,0,2.01.64,4.32-1.69,5.68Z"/>
      <path class="cls-15" d="m28.94,164.38c0,11.75,0,23.5,0,35.25-3.12-2.39-1.52-5.78-1.62-8.69-.31-8.66-.26-17.34-.35-26l2.03-.5-.07-.06Z"/>
      <path class="cls-15" d="m27.25,131.09c2.52,9.06,2.36,18.13.03,27.19,0-9.06-.02-18.13-.03-27.19Z"/>
      <path class="cls-17" d="m116.66,49.7c.01-5.35.03-10.69.04-16.04,2.35,5.35,2.37,10.7-.04,16.04Z"/>
      <path class="cls-11" d="m34.94,33.39c0,5.53,0,11.05.01,16.58-2.25-5.52-2.28-11.05-.01-16.58Z"/>
      <path class="cls-12" d="m97.28,43.37c.12.53.11,1.05-.04,1.57-13.26,4.39-26.69,2.62-40.12,1.12-1.05-.54-1.36-1.37-.95-2.47,13.7-.08,27.41-.15,41.11-.23Z"/>
      <path class="cls-32" d="m56.17,43.6c-.02.48,0,.95.04,1.43,3.36,10.69,3.99,21.33-.47,31.9-.59-.03-1.17-.06-1.77-.09.12-8.68.18-17.37.43-26.04.07-2.46-1.12-5.38,1.77-7.2Z"/>
      <path class="cls-9" d="m113.42,196.54c.66-9.67.53-19.03-7.1-26.59-1.96-1.94-.84-5.1-.86-7.7-.09-9.79-.04-19.59-.04-31.28-4.69,4.19-1.4,12.4-10.25,9.05,2.52,3.46,4.85,2.04,6.72,2.61,1.87,7.81,1.58,15.65.19,23.49-6.59-2.83-12.64-6.57-17.63-11.7-3.86-3.97-7.52-8.32-5.83-14.64.28-1.03-.19-2.81.19-3,7.42-3.81,4.67-11,5.75-16.89.41-2.21,1.45-4.37,3.6-4.71,4.18-.65,6.61-2.83,7.7-6.76,5.17-.09,8.65,4.55,15.19,5.47-4.09-8.04-7.64-15.03-12.09-23.77,12.87,8.17,20.18,17.91,22.44,31.3,1.56,15.61.34,31.26.68,46.89.15,7.17.05,14.35.02,21.52-.04,8.08-.06,8.08-8.7,6.72Z"/>
      <path class="cls-21" d="m55.74,76.93c.16-10.63.31-21.27.47-31.9,13.68-.03,27.36-.05,41.04-.08.11,8.74.33,17.48.3,26.21-.04,12.54-6.8,21.44-17.34,23.12-11.59,1.84-20.59-4.54-24.48-17.35Z"/>
      <path class="cls-9" d="m67.02,196.72c-7.39-17.04-22.43-25.06-38.08-32.34,0,0,.07.06.07.06-.67-1.95-1.06-3.39,2.09-3.11,4.59.41,8.89,2,12.77,4,10.03,5.17,23.12,4.1,30.33,15.16,1.79,2.74,3.66-.31,5.03-1.53,1.48-1.31,3.78-3.1,1.12-5.13-11.26-8.61-4.72-21.47-8-32.35,5.7,14.65,18.59,21.06,30.33,28.88,9.54,6.35,7.79,16.45,7.27,25.94-14.29,1.93-28.61,1.16-42.93.41Z"/>
      <path class="cls-3" d="m47.96,132.67c-.98,1.49,1.3,4.09-1.68,4.89-4.26-2.16-7.59-5.22-9.4-9.75-6.13-4.87-5.51-10.36-2.22-16.74,3.82-7.4,8.47-13.79,16.43-18.75.76,9.04-6.72,14.18-7.69,21.57.49.09,1.02.37,1.32.21q10.81-5.6,14.6,6.17c3.77,11.83,7.43,23.69,11.21,35.52.72,2.26,1.85,4.41.51,7.86-6.04-6.34-11.77-12.38-17.54-18.38-3.73-3.88,3.3-2.02,2.31-4.41-3.04-1.12-6.42-1.84-5.55-6.47.23-1.23-.44-2.63-2.32-1.72Z"/>
      <path class="cls-8" d="m44.68,139.22c9.76,10.44,19.59,20.82,29.19,31.4,1.61,1.78,6.35,3.65,3.06,6.5-2.82,2.45-4.54-2.19-6.22-3.94-13.4-13.94-26.57-28.11-39.83-42.18-1.26-1.34-2.56-3.56-3.98-3.69-12.84-1.15-15-13.51-21.98-20.72-2.31-2.39.63-7.75,3.7-6.87,4.49,1.29,11.09,3.37,11.43,7.44.91,10.9,9.88,15.14,15.3,22.26,4.13,2.29,7.52,5.3,9.33,9.8Z"/>
      <path class="cls-3" d="m30.71,196.41v-27.63c17.09,5.9,17.72,6.94,16.83,27.54-5.6,1.74-11.21,1.47-16.83.09Z"/>
      <path class="cls-1" d="m30.49,136.01c6.93,8.58,20.69,12.64,16.7,27.22-4.48-1.29-8.94-2.67-13.45-3.85-2.46-.65-3.36-1.98-3.3-4.53.15-6.28.05-12.56.05-18.84Z"/>
      <path class="cls-33" d="m95.87,108.4c.38,4.53.02,8.44-6.08,8.32-2.92-.06-3.17,2.06-3.17,4.38,0,3.45-.12,6.91-.32,10.36-.17,2.95-.25,2.99-3.92,3.19-3.4.18-1.53,4.13-3.76,5.12-.5-.73-1-1.47-1.5-2.2-2.23-3.48,2.89-10.39-5.18-11.16-.39-.54-.78-1.09-1.17-1.63.7-8.58,4.56-16.17,7.58-24.02,1.07.99,2.14,1.98,3.21,2.97,1.26,7.12-5.01,14.32.43,21.7,2.21-7.41-1.62-14.46-.33-21.54.52-.06,1.04-.04,1.55.05,1.82.16,3.27.05,3.76-2.31.68-3.25,2.31-6.16,4.09-8.95.55-1.24,1.63-1.47,2.82-1.53,1.69,4.36-.81,9.4,2.16,13.56-.06,1.24-.11,2.47-.17,3.71Z"/>
      <path class="cls-7" d="m78.36,100.75c.48,8.96-3.58,16.48-7.58,24.02-1.27,1.57-2.53,3.15-5.29,6.57v-14.52c-.95-1.05-.93-2.09.03-3.12,2.17-4.82,4.35-9.64,6.52-14.46l-.09.12c2.27-.19,4.77-1.42,6.4,1.39Z"/>
      <path class="cls-10" d="m65.52,113.7c-.01,1.04-.02,2.08-.03,3.12-2.99.73-.26,4.1-2.89,5.3-2.87-9.2-5.69-18.49-8.68-27.72-.73-2.25-1.24-4.16,1.6-5.07,3.38-1.08,3.03,1.75,3.59,3.57,2.15,6.93,4.28,13.87,6.42,20.8Z"/>
      <path class="cls-24" d="m113.42,196.54c6.78.98,8.2-2.24,8.1-8.58-.37-22.18-.12-44.37-.1-66.55,2.13,2.51,1.38,5.57,1.39,8.38.11,20.4.11,40.8.09,61.2-.01,7.8-.9,8.28-9.48,5.55Z"/>
      <path class="cls-6" d="m96.04,104.69c-7.74-3.4-2.48-8.87-2.16-13.56,1.77-2.45,2.53-.31,3.15.85,2.82,5.25,5.51,10.56,8.96,17.21-4.12-1.87-7.04-3.19-9.95-4.51Z"/>
      <path class="cls-2" d="m51.18,180.46c5.86,3.13,8.57,8.76,11.37,14.32-2.3,5.1-6.7,2.25-9.98,2.17-3.33-.08-2.14-3.63-2.09-5.71.07-3.59-.91-7.29.7-10.78Z"/>
      <path class="cls-26" d="m62.6,168.61c-12.65-1.87-12.84-2.06-12.42-12.23,5.25,3.1,8.69,7.46,12.42,12.23Z"/>
      <path class="cls-14" d="m91.07,92.67c-.58,5.28-2.6,10.1-4.39,14.93-2.96.07-1.24-3.5-3.47-3.67-5.5-9.42,4.11-8.29,7.85-11.26Z"/>
      <path class="cls-20" d="m72.05,99.24c-4.05.42-3.31,4.96-6.06,6.95-1.69-4.12-3.42-8.09-3.69-13.6,3.5,3,8.44,1.92,9.67,6.77,0,0,.09-.12.09-.12Z"/>
      <path class="cls-29" d="m67.02,196.72c14.31-.14,28.62-.27,42.93-.41-2.74,3.18-6.45,1.75-9.62,1.61-11.1-.49-22.31,2.04-33.3-1.2Z"/>
      <path class="cls-23" d="m71.95,126.4c1.49-.8,2.02-4.36,3.75-2.89,1.92,1.64,3.7,4.46,3.41,7.41-.22,2.25-1.29,4.42-1.99,6.63-5.04-2.18-3.09-7.6-5.18-11.16Z"/>
      <path class="cls-22" d="m51.18,180.46c-.01,2.64-.03,5.28-.03,7.93-.02,9.24,2.02,10.38,11.41,6.39,1.41.89,1.66,2.39.3,3.01-7.63,3.48-13.21-.34-13.15-8.86.02-2.84.2-5.68.34-8.52,0-.11.31-.32.45-.29.24.04.46.22.69.35Z"/>
      <path class="cls-30" d="m44.68,139.22c-3.69-2.72-6.64-6.13-9.33-9.8.51-.54,1.02-1.08,1.53-1.61,3.13,3.25,6.27,6.5,9.4,9.75-.53.55-1.06,1.11-1.59,1.66Z"/>
      <path class="cls-16" d="m102.08,166.11c-.06-7.83-.13-15.66-.19-23.49,3.19,7.8,2.76,15.64.19,23.49Z"/>
      <path class="cls-26" d="m69.44,141.77c-2.24-3.45-3.86-6.7-1.62-10.44.18-.3,1.74-.23,2.18.18,3.74,3.52.38,6.66-.56,10.26Z"/>
      <path class="cls-25" d="m47.33,109.26c2.59-3.42,2.82-6.54,5.43-8.31q1.65,5.13-5.43,8.31Z"/>
      <path class="cls-18" d="m30.71,196.41c5.61-.03,11.22-.06,16.83-.09-5.59,2.99-11.2,2.94-16.83.09Z"/>
      <path class="cls-19" d="m47.96,132.67c1.57-2.22,3.13-.86,2.9.67-.63,4.27,2.63,5.49,4.96,7.53-7.42,1.89-4.92-5.78-7.87-8.19Z"/>
      <path class="cls-31" d="m64.69,87.04c-.12-8.52,3.38-13.44,9.93-13.98,7.35-.61,11.74,3.64,12.8,12.4-9.45-13.02-12.85-12.78-22.73,1.58Z"/>
      <path class="cls-4" d="m81.66,103.88c3.55,8.47,3.15,17.3,2.68,27.12-10.33-8.84-6.24-18.09-2.78-27.28,0,0,.1.16.1.16Z"/>
      <path class="cls-5" d="m90.29,105.75c1.36,2.53,4.02,4.75,1.45,7.48-.51.54-2.45.66-2.89.19-2.79-2.97,1.53-4.95,1.44-7.68Z"/>
    </g>
  </g>
</svg>