<?xml version="1.0" encoding="UTF-8"?>
<svg id="Layer_2" data-name="Layer 2" xmlns="http://www.w3.org/2000/svg" viewBox="0 0 93.26 178.35">
  <defs>
    <style>
      .cls-1 {
        fill: #f3f3f4;
      }

      .cls-2 {
        fill: #f7f6f7;
      }

      .cls-3 {
        fill: #f8f7f7;
      }

      .cls-4 {
        fill: #69696a;
      }

      .cls-5 {
        fill: #f5f4f4;
      }

      .cls-6 {
        fill: #f1f1f2;
      }

      .cls-7 {
        fill: #f1f1f1;
      }

      .cls-8 {
        fill: #fafafa;
      }

      .cls-9 {
        fill: #fdfdfd;
      }

      .cls-10 {
        fill: #6b6b6b;
      }

      .cls-11 {
        fill: #656666;
      }

      .cls-12 {
        fill: #9e9e9e;
      }

      .cls-13 {
        fill: #737373;
      }

      .cls-14 {
        fill: #cecece;
      }

      .cls-15 {
        fill: #d8d8d7;
      }

      .cls-16 {
        fill: #bdbebf;
      }

      .cls-17 {
        fill: #bdbec0;
      }

      .cls-18 {
        fill: #bdbfc1;
      }

      .cls-19 {
        fill: #c4c4c4;
      }

      .cls-20 {
        fill: #dbd9d9;
      }

      .cls-21 {
        fill: #d9d8d8;
      }

      .cls-22 {
        fill: #252525;
      }

      .cls-23 {
        fill: #242223;
      }

      .cls-24 {
        fill: #232223;
      }

      .cls-25 {
        fill: #626364;
      }

      .cls-26 {
        fill: #262525;
      }

      .cls-27 {
        fill: #3d3e3e;
      }

      .cls-28 {
        fill: #272828;
      }

      .cls-29 {
        fill: #838485;
      }
    </style>
  </defs>
  <g id="Layer_1-2" data-name="Layer 1">
    <g id="John">
      <path class="cls-13" d="m2.28,99.15c.43-.71.86-1.43,1.29-2.14,1.94.93,2.82,2.66,3.48,4.56,1.82,15.06.45,30.19.85,45.29.11,4.24-.03,8.49.03,12.74.13,9.79.76,10.42,10.32,10.56,5.03.08,10.07-.15,15.09.22.86.07,1.72.22,2.57.4,2.35.69,4.74.96,7.16.28,3.25-.62,6.49-.65,9.73.04,2.81.86,5.59.61,8.37-.23,8.38-.95,16.76-.6,25.15-.33.9.09,1.77.31,2.61.63,1.31.57,2.24,1.48,2.55,2.92-4.88,3.75-10.63.57-15.8,2-1.6,0-3.19,0-4.79,0-15.42,0-30.84,0-46.26,0h-4.78c-1.72,1.4-3.75,1.85-5.89,2.07-12.63,1.34-16.93-4.7-11.93-16.75.08-20.76.16-41.51.24-62.27Z"/>
      <path class="cls-10" d="m25.89,24.71C30.18,14.73,35.09,5.24,45.38,0c1.56.16,3.12.33,4.68.49.97,1.02,1.93,2.05,2.9,3.07-2.05,4.3.23,8.19,1.07,12.25.99,4.77,4.03,9.37,1.4,14.5-4.13,1.14-4.03-2.56-4.86-4.64-2.1-5.3-3.96-10.72-4.37-17.42.11,8.58-2.98,15.17-5.62,21.87-.74,1.44-1.57,2.8-2.87,3.82-.8.33-1.57.25-2.29-.22-.47-.65-.76-1.38-.91-2.17,2.16-8.88,4.38-17.75,8.4-25.94-3.75,4.19-7.07,9.04-10.03,14.22-1.5,2.62-2.62,6.19-6.99,4.87Z"/>
      <path class="cls-16" d="m55.27,30.74c.05-8.07-3.76-15.22-5.67-22.8-1.02-4.04.12-4.53,3.36-4.37,3.37,4.52,6.74,9.03,10.11,13.55,5.05,12.13,11.26,23.9,12.65,37.24.84,8.1,2.12,16.25.43,24.39-1.22,5.89-4.27,10.81-8.74,14.83-1.97,1.76-4.04,3.98-6.93,2.64-2.88-1.33-2.98-4.41-2.49-6.97,2.2-11.59.82-23.28,1.15-34.92.15-5.3.26-10.61-.22-15.88-.62-1.75-1.71-3.24-2.85-4.7-.58-.92-.89-1.9-.79-3Z"/>
      <path class="cls-11" d="m59.17,34.71c2.74,2.18,2,5.31,2.04,8.12.28,17.46.79,34.92-1.62,53.67,11.53-6.48,15.22-16.1,15.92-27.15,1.01-16-3.83-30.75-10.49-45.03-1.05-2.26-3.57-4.19-1.95-7.2,9.12,14.06,14.12,29.49,14.52,46.24.11,4.73,1.09,8.41,4.35,12.12,5.46,6.22,8.98,13.63,9.41,22.17-1.05.85-2.05.77-3.01-.16-3.7-5.31-3.33-12.84-9.7-17.38-3.08,4.85-4.68,10.49-8.99,14.46,6.32,3.41,14.27-2.74,19.14,4.57-.56.73-1.25,1.24-2.11,1.57-26.56,1.35-53.11.62-79.67.43-.48-.1-.97-.21-1.45-.32-1.62-.76-1.66-2.35-2-3.79,1.35-7.73,2.32-15.65,9.96-20.29,1.97,3.85-1.12,6.42-2.46,9.38-3.67,8.12-2.88,9.43,6.04,9.48,1.8,0,3.61.13,6.46-.31-6.14-5.2-9.01-11.41-10.12-18.49-.79-18.57,3.85-35.84,12.56-52.12,3.41,3.54.95,7.03-.31,10.34-4.58,12.05-7.81,24.31-6.81,37.37.59,7.75,3.41,14.15,10.62,18.66,2.1-5.6-.18-11.16,2-16.13.73-1.12,1.58-1.94,3.05-1.22,2.93,4.3,1.41,9.25,1.99,13.9.85,6.87,2.76,7.84,11.85,7.86,6.1.01,7.85-2.83,7.57-8.31-.28-5.55.08-11.1.38-16.64-.19-1.13-.41-2.25-.56-3.38-.03-.77-.12-1.65.27-2.28,2.8-4.54.87-7.54-3.09-9.95.45-1.46,1.66-2.33,2.59-3.4,1.59-2.11,1.28-3.68-1.15-4.92-1.46-.75-3.71-1.13-2.58-3.74,3.75-1.51,5.88-4.5,7.33-8.1Z"/>
      <path class="cls-27" d="m88.53,99.03c.03-.49,0-.98-.07-1.47h0c.96.02,1.93.05,2.89.08.19,1.57.38,3.13.57,4.7.74,23.97.97,47.95-.13,71.92,0,0-.31-.16-.31-.16-.53-.56-1.07-1.12-1.6-1.68-2.55-2.87-2.04-6.41-2.04-9.78-.03-19.74-.09-39.48.01-59.21,0-1.49.35-2.94.67-4.38Z"/>
      <path class="cls-21" d="m91.8,174.25c.04-23.97.09-47.95.13-71.92,1.51,1.45,1.31,3.35,1.31,5.17,0,20.28.01,40.55,0,60.83,0,2.07.34,4.26-1.44,5.92Z"/>
      <path class="cls-18" d="m32.25,75.44v19.79c-8.76-2.7-14.73-11.3-15.51-22.1-.99-13.78,2.19-26.75,7.18-39.44,1.13-2.86,3.34-5.57,2.08-9.03,0,0-.12.05-.12.05,3.06-.59,3.84-3.32,5.18-5.53,3.39-5.6,6.54-11.41,13.09-15.95-1.97,10.47-5.5,19.49-8.59,28.63-3.46,8.67-2.16,17.77-2.38,26.73.03.87.03,1.74.01,2.6.04,4.77-.1,9.53-.95,14.25Z"/>
      <path class="cls-9" d="m35.69,172.35c-8.2.1-16.41-.03-24.6.38-4.69.23-5.7-1.63-5.66-5.96.21-21.99.12-43.98.14-65.97l.13.14c4-2.03,8.29-.93,12.41-.9,23.46.18,46.94-.74,70.39.45,1.66,18.18.41,36.4.64,54.6.07,5.73,1.04,11.57-.79,17.25-9.55.09-19.1.18-28.65.27-5.06-1.77-8.13-5.83-10.75-10.08-3.16-5.12-1.93-7.28,4.94-9.27-2.84-1.55-5.38-.35-7.84-.29-1.41.06-2.79-.25-4.17-.45-1.37-.05-2.56.34-3.39,1.52-1.98,5.96,1.63,12.76-2.81,18.31Z"/>
      <path class="cls-22" d="m45.22,151.75c1.97-1.69,4.35-1.46,6.72-1.58,3.2-.16,6.56.43,6.1,4.13-.55,4.42-3.39,2.03-5.69.92-1.05-.5-2.74-.51-3.42.95-.73,1.55-.13,2.98.78,4.4,2.84,4.43,7.78,7.1,10.01,12.03-2.34,2.41-4.55,2.13-6.67-.3-5.17-2.41-8.95-6.19-10.5-11.73-.94-3.34-.99-6.74,2.68-8.83Z"/>
      <path class="cls-14" d="m88.36,172.34c-.03-23.76-.05-47.52-.08-71.28.38-.87.84-.92,1.4-.16.07,23.84.14,47.67.2,71.51l-.77.07-.76-.15Z"/>
      <path class="cls-28" d="m37.39,150.23c1.59,0,3.18.01,4.77.02-.07,7.38,4.07,14.73.22,22.15-1.73,2.47-3.46,2.59-5.2.01-.74-7.4-1.2-14.8.21-22.18Z"/>
      <path class="cls-15" d="m42.39,172.4c-.07-7.38-.15-14.77-.22-22.15,1.02.5,2.03,1,3.05,1.5-3.13,5.65-1.6,10.44,2.65,14.79,1.8,1.85,3.46,3.84,5.18,5.77-3.54.83-7.1.54-10.65.08Z"/>
      <path class="cls-19" d="m37.39,150.23c-.07,7.39-.14,14.79-.21,22.18l-.75.07s-.75-.13-.75-.13c1.01-7.34-1.64-14.96,1.7-22.12Z"/>
      <path class="cls-2" d="m55.27,30.74c.24.49.47.98.71,1.46-1.46,2.87-4.36,3.56-7.02,4.65-4.87.11-8.94-1.09-10.59-6.35,2.59-7.68,5.18-15.37,7.85-23.28,4.35,7.4,3.74,16.63,9.04,23.52Z"/>
      <path class="cls-29" d="m31.44,59.36c-.11-5.74-.2-11.47-.35-17.21-.11-4.15,1.1-7.68,4.48-10.3.1.79.21,1.58.31,2.37.02,4.28,1.89,7.23,6.1,8.5.35.41.51.84.48,1.31-.03.48-.09.71-.18.72-1.06,1.73-3.85,1.67-4.54,4.58,6.34,1.76,13.91-2.5,18.92,3.97-1.12,1.34-2.7,1.22-4.22,1.31-5.03,3.4-11.5.67-16.55,3.94-1.43.59-2.85,1.25-4.46.8Z"/>
      <path class="cls-7" d="m42.26,43.33c-8.78-.5-9.51-1.55-6.37-9.1.5-.2,1-.4,1.5-.6,7.46,1,8.62,3.31,4.87,9.7Z"/>
      <path class="cls-29" d="m42.26,43.33c1.18-4.64,2.15-9.18-4.87-9.7.33-1.04.67-2.08,1-3.12,3.59,3.12,7.37,5.73,12.52,4.33,1.26,1.83,1.12,3.77.42,5.74-2.88,1.45-6.06,1.93-9.16,2.67l.09.09Z"/>
      <path class="cls-6" d="m50.7,41.89c-.8-2.37-.34-4.71.2-7.05.91-2.4,3.51-1.53,5.09-2.63,1.06.84,2.12,1.68,3.18,2.51,1.52,6.39.08,10.12-7.49,8.36-.53-.22-.86-.62-.98-1.19Z"/>
      <path class="cls-8" d="m58.13,68.75c-.01,7.71.03,15.42-.06,23.13-.03,2.52.54,5.61-3.61,5.59-5.27-.03-10.55-.13-15.81.05-3.22.11-3.17-2.08-3.32-4.12-.48-6.57-.87-13.14-1.3-19.71-1.43-1.72-1.54-3.62-.81-5.64,3.28-2.97,5.39.09,6.98,1.92,4.41,5.08,8.51,5.08,13.07.4,1.24-1.27,2.79-2.43,4.85-1.62Z"/>
      <path class="cls-3" d="m88.46,97.56h-24.96c8.19-6.56,11.59-14.09,14.19-22.96,6.15,7.08,10.82,13.88,10.77,22.96h0Z"/>
      <path class="cls-17" d="m33.98,57.81c5.66-3.97,12.06-3.63,18.48-3.2,1.54,2.86,5.79-.48,6.75,2.59,1.17,3.73-.63,6.99-3.29,9.71-2.28,4.66-5.22,9.24-11.09,7.85-5.6-1.32-11.85-12.13-10.86-16.95Z"/>
      <path class="cls-5" d="m13.45,76.78c4.68,6.49,5.91,15.25,13.23,20.75-4.38,0-8.75.02-13.13,0-8.78-.06-8.97-.26-5.6-8.8,1.62-4.1,3.7-8.01,5.57-12,0,0-.08.06-.08.06Z"/>
      <path class="cls-1" d="m50.7,41.89c.33.4.65.79.98,1.19,4.17,2.18,12,2.58,4.99,10.22-5.09-.69-9.93-3.72-15.36-1.24-3.36,1.54-6.27,1.14-6.97-3.34-.81-5.21,3.09-3.44,5.58-3.73,1.13-.13,1.97-.56,2.26-1.75,3.08-.86,2.5-4.29,4.15-6.08,2.94.31,1.09,4.84,4.38,4.73Z"/>
      <path class="cls-12" d="m89.68,100.9c-.47.03-.94.08-1.4.16-27.53-.04-55.05-.08-82.58-.11,1.86-2.95,4.83-1.58,7.24-1.6,25.19-.2,50.39-.24,75.59-.32.38.62.77,1.25,1.15,1.87Z"/>
      <path class="cls-25" d="m33.98,57.81c-.53,8.23,6.51,11.29,11.01,16.05,1.91,2.02,3.34-.07,4.61-1.12,2.21-1.82,4.22-3.88,6.32-5.84.74.61,1.47,1.23,2.21,1.84q-12.38,8.89-23.64-1.31c-4.74-.52-1.5-4.73-3.1-6.7-.14-.47-.13-.93.05-1.38.85-.51,1.69-1.03,2.54-1.54Z"/>
      <path class="cls-29" d="m31.39,60.74c2.17,1.71-.16,5.5,3.1,6.7-.15,2.08-.31,4.16-.46,6.25-.59.58-1.18,1.17-1.77,1.75-2.31-4.78-1.01-9.78-.86-14.7Z"/>
      <path class="cls-24" d="m30.07,131.77c-1.61,3.71-2.44,6.93-2.2,10.42.11,1.63-.46,3.27-2.45,3.5-2.07.24-2.66-1.25-2.92-2.94-1.41-9.17-2.81-18.35-4.22-27.52-.26-1.69-.35-3.18,2.02-3.29,2-.09,3.2.83,2.8,2.77-.9,4.41,1.76,8.07,2.5,12.22.76-4.07,1.56-8.14,2.28-12.21.21-1.2-.34-2.81,1.71-2.82,1.61,0,2.43.35,3.25,2.31,1.82,4.32,1.24,9.02,2.76,15.11,2.82-5.46,1.69-9.63,1.72-13.58.02-3.03,1.03-4.63,4.14-4.15,4.03.63.99,2.87,1.07,4.56.45,8.53-2.31,16.58-3.25,24.89-.22,1.94.45,4.81-2.85,4.56-2.77-.21-4.15-2.07-3.67-5,.55-3.32-.31-6.25-2.69-8.83Z"/>
      <path class="cls-23" d="m61.33,145.25c-2.66.15-6.11,2.09-6.53-2.85-.18-2.12-.93-3.32-3.4-3.37-2.52-.05-3.07,1.21-3.42,3.28-.31,1.84-.92,3.88-3.48,3.32-3.52-.77-1.58-3.24-1.31-5.07,1.25-8.32,2.78-16.6,3.79-24.94.4-3.27,1.89-3.78,4.66-3.76,3.05.01,2.93,1.85,3.44,4.08,1.99,8.71,1.37,18.04,6.14,26.09.92,1.05,1.07,2.13.09,3.24Z"/>
      <path class="cls-26" d="m61.33,145.25c-.03-1.08-.06-2.16-.09-3.24.03-7.7-.14-15.42.2-23.11.11-2.52-2.49-7.04,3.33-6.99,4.62.04,10.1-1.43,11.75,5.1.63,2.5,1.4,5.98.21,7.72-3.72,5.47-1.84,10.54-.42,15.88.45,1.67,2.74,4.16-.74,5.03-3.07.77-4.03-1.48-4.51-4.14-.6-3.31-1.48-6.57-2.49-10.98-3.59,3.93-2.1,7.48-2.11,10.54,0,3.97-1.22,5.46-5.12,4.19Z"/>
      <path class="cls-4" d="m48.31,64.26c-4.82,0-8.99-.83-8.95-4.13.04-3.1,4.5-2.64,7.23-2.69,2.72-.05,6.92-.4,7.04,2.86.11,2.82-3.66,4-5.32,3.96Z"/>
      <path class="cls-20" d="m66.14,121.22c.46-1.83-1.02-4.72,2.37-4.74,3.07-.02,3.68,2.52,3.7,4.92.02,2.4-.57,5.02-3.58,5.02-3.98,0-1.78-3.41-2.49-5.19Z"/>
    </g>
  </g>
</svg>