<?xml version="1.0" encoding="UTF-8"?>
<svg id="Layer_2" data-name="Layer 2" xmlns="http://www.w3.org/2000/svg" viewBox="0 0 97.58 181.97">
  <defs>
    <style>
      .cls-1 {
        fill: #f3f2f2;
      }

      .cls-2 {
        fill: #f6f5f4;
      }

      .cls-3 {
        fill: #f6f5f5;
      }

      .cls-4 {
        fill: #f6f6f5;
      }

      .cls-5 {
        fill: #f7f6f6;
      }

      .cls-6 {
        fill: #f7f7f6;
      }

      .cls-7 {
        fill: #f2f1f1;
      }

      .cls-8 {
        fill: #f9f8f8;
      }

      .cls-9 {
        fill: #f8f8f8;
      }

      .cls-10 {
        fill: #f8f7f7;
      }

      .cls-11 {
        fill: #f4f3f3;
      }

      .cls-12 {
        fill: #f5f4f4;
      }

      .cls-13 {
        fill: #fffefe;
      }

      .cls-14 {
        fill: #f1f0f0;
      }

      .cls-15 {
        fill: #fbfafa;
      }

      .cls-16 {
        fill: #fafafa;
      }

      .cls-17 {
        fill: #fefdfd;
      }

      .cls-18 {
        fill: #fbfbfb;
      }

      .cls-19 {
        fill: #faf9f9;
      }

      .cls-20 {
        fill: #faf9f8;
      }

      .cls-21 {
        fill: #fdfdfc;
      }

      .cls-22 {
        fill: #fdfcfc;
      }

      .cls-23 {
        fill: #7d7d7d;
      }

      .cls-24 {
        fill: #989898;
      }

      .cls-25 {
        fill: #989798;
      }

      .cls-26 {
        fill: #979797;
      }

      .cls-27 {
        fill: #b5b5b5;
      }

      .cls-28 {
        fill: #8d8d8d;
      }

      .cls-29 {
        fill: #cecdcd;
      }

      .cls-30 {
        fill: #b1b2b2;
      }

      .cls-31 {
        fill: #aaa9aa;
      }

      .cls-32 {
        fill: #aeaeae;
      }

      .cls-33 {
        fill: #c9c8c8;
      }

      .cls-34 {
        fill: #d0cfd0;
      }

      .cls-35 {
        fill: #d1d2d2;
      }

      .cls-36 {
        fill: #c3c3c3;
      }

      .cls-37 {
        fill: #c4c4c4;
      }

      .cls-38 {
        fill: #d9d8d7;
      }

      .cls-39 {
        fill: #c5c5c4;
      }

      .cls-40 {
        fill: #c8c7c7;
      }

      .cls-41 {
        fill: #232323;
      }

      .cls-42 {
        fill: #717070;
      }

      .cls-43 {
        fill: #959595;
      }

      .cls-44 {
        fill: #545454;
      }

      .cls-45 {
        fill: #262626;
      }

      .cls-46 {
        fill: #757474;
      }

      .cls-47 {
        fill: #777;
      }

      .cls-48 {
        fill: #777677;
      }
    </style>
  </defs>
  <g id="Layer_1-2" data-name="Layer 1">
    <g id="Kurt">
      <path class="cls-46" d="m67.02,179.48c-1.06,0-2.13,0-3.19,0-7.44,3.32-14.89,3.32-22.33,0-1.06,0-2.13,0-3.19,0-12.17-.22-24.34-.43-36.51-.65-.58-.72-.61-1.47-.09-2.24.75-1.03,1.77-1.66,2.96-2.05q12.35-1.52,12.37-15.35c-.02-1.14,0-2.27.02-3.4,0-1.79.03-3.58-1.08-5.12-3.86-2.89-9.12.19-12.86-3.06-.36-.73-.36-1.46-.02-2.2,3.56-3.14,8.79-.45,13.28-3.74-4.27-3.17-9.4-.7-12.98-3.41-.51-.61-.69-1.31-.54-2.09,2.27-2.47,5.35-2.03,8.2-2.1,3.33-.09,5.55-1.48,6.71-4.58,1.13-1.01,1.35-2.11.33-3.35-.63-1.79-.58-3.6-.27-5.43.45-1.88.07-3.75-.15-5.63.06-4.61,2.15-6.27,6.58-4.58,16.29,1.72,32.57,1.71,48.83-.05,4.45-1.52,6.79-.21,6.36,4.77-1.07,1.2-1.39,2.44-.17,3.77.81,2.31.85,4.61.03,6.92-1.07,1.09-1.33,2.17.11,3.2,1.13,3.27,3.26,4.97,6.87,4.97,2.77,0,5.69-.23,8.05,1.8.31.75.24,1.47-.13,2.18-3.57,3.03-8.78.42-13.17,3.59,4.28,3.32,9.48.7,13.05,3.6.46.68.58,1.41.32,2.2-3.74,3.53-9.13.35-12.99,3.25-1.14,1.54-1.15,3.33-1.13,5.12.04,1.16.05,2.32.05,3.48.09,1.59.18,3.19,0,4.74-.79,6.79,1.36,10.77,8.99,9.99,1.55-.16,3.14.28,4.61.99.8.48,1.4,1.12,1.83,1.95.44.94.32,1.81-.34,2.6"/>
      <path class="cls-27" d="m97.57,176.02c-.45.52-.89,1.05-1.34,1.57,0,0-.7,0-.7,0-2.95-5.42-2.33-11.36-1.93-17.06,1.1-15.65-.31-31.26-.06-46.89.05-3.34-.62-6.97,2.43-9.59,2.68,5.54,1.18,11.43,1.3,17.14.29,13.48.23,26.96.31,40.44,0,4.79-.01,9.58-.02,14.37Z"/>
      <path class="cls-44" d="m95.97,104.07c-.15,24.51-.29,49.03-.44,73.54-.53-.63-1.06-1.25-1.58-1.88-3.47-4.94-1.58-10.56-2.02-15.89.04-1.29.08-2.59.12-3.88.06-2.09.08-4.18.57-6.24.26-.8.68-1.51,1.23-2.14.04-.72.08-1.44.12-2.16-1.87-2.4-1.98-4.83-.13-7.3.05-.76.1-1.51.14-2.27-2.15-3.85-5.12-6.14-9.83-5.73-2.02.18-4.08-.27-5.67-1.81-1.43-.57-1.59-1.2-.09-1.91,3.35-3.32,8.62-.65,12.77-3.87-4.15-3.22-9.42-.55-12.76-3.87-1.55-.74-1.14-1.36.11-1.94,2.57-2.44,5.98-1.72,9.02-2.4,1.57-.35,3.2-.77,3.19-2.85-.01-2-1.5-2.6-3.12-2.97-2.08-.48-4.21-.39-6.33-.4-21.71-.01-43.42-.01-65.13,0-1.85,0-3.72-.08-5.55.25-1.82.33-3.89.6-3.93,3.08-.04,2.57,2.12,2.7,3.9,3.02,2.82.51,5.9.02,8.24,2.25,2.08.78,2.04,1.94.62,3.36-4.08,1.54-8.87-.71-13.51,2.34,4.26,3.46,9.65.64,13.06,4,1.61.73,1.41,1.36-.11,1.91-1.59,1.54-3.66,1.98-5.68,1.81-4.73-.42-7.68,1.93-9.84,5.77.04.72.07,1.44.1,2.15,1.98,2.5,1.78,4.97-.1,7.42.03.69.07,1.38.1,2.07.55.63.95,1.34,1.23,2.13.53,2.05.52,4.14.6,6.23.06,1.31.08,2.61.15,3.92-.43,5.36,1.46,11.01-2.07,15.96-.53.57-1.07,1.15-1.6,1.72-1.92-4.04-.88-8.33-.84-12.47.17-20.35-.74-40.7.46-61.04,1.31-11.87,6.53-21.86,15.62-29.39,3.96-3.28,5.06-6.67,5.26-11.53.57-14.18-2.08-28.66,3.19-42.46,1.5-3.94,3.11-7.9,5.23-11.52,6.92-11.86,25.71-11.91,33.26-1.43,6.72,9.32,9.96,19.79,11.39,30.98.7,9.62.8,19.23-.04,28.85-.96,3.9,2.65,4.73,4.57,6.58,7.28,7.03,13.56,14.56,14.29,25.28-2.53.8-3.02-1.4-4.07-2.77-.35-.66-.63-1.34-.89-2.03-.52-1.42-1.33-2.67-2.29-3.84-6.28-3.36-13.19-2.45-19.56-1.67-15.44,1.88-30.74-.5-46.1-.23-3.7.07-7.48-.31-10.77,1.94-.88,1.16-1.72,2.36-2.21,3.76-.2.66-.45,1.32-.69,1.96-.58,1.65-.95,3.26.63,4.63,4.65,1.72,9.44.76,14.12.79,19.76.13,39.51.07,59.27.04,2.88,0,5.81.3,8.59-.85,1.29-.49,2.62-.68,3.99-.41,1.81.48,1.55,2.07,1.82,3.37Z"/>
      <path class="cls-22" d="m91.02,95.99c1.7.51.76,3.47,3.12,3.37,0,.44,0,.89,0,1.33-.63.6-1.25,1.2-1.88,1.8-2.45,1.58-5.18.81-7.76.82-24.42.06-48.83.11-73.25-.08-2.31-.02-6.2,2.23-6.83-2.7.52-1.58-.07-3.61,1.89-4.59,2.45-1.98,5.38-1.97,8.3-1.98,22.71-.05,45.41-.05,68.12,0,2.91,0,5.85,0,8.28,2.03Z"/>
      <path class="cls-24" d="m1.37,104c.13,24.5.26,49,.38,73.5.01.44.02.88.04,1.32C.1,177.97,0,176.4,0,174.79c.02-22.39.03-44.77.12-67.16,0-1.21.81-2.42,1.25-3.62Z"/>
      <path class="cls-39" d="m75.28,67.5c.01-9.62.03-19.23.04-28.85,2.25,9.62,1.91,19.23-.04,28.85Z"/>
      <path class="cls-6" d="m18.81,116.7c-3.45.03-6.92-.19-10.34.15-4.26.43-5.33-1.32-5.41-5.37-.1-4.41,1.12-5.91,5.73-5.88,26.52.2,53.05.19,79.57,0,4.57-.03,5.78,1.4,5.91,5.86.14,5.04-2.18,5.69-6.21,5.38-3.17-.24-6.36-.09-9.54-.11-1.82-1.1,2.65-7.16-3.69-4.69-17.43,1.46-34.86,1.44-52.29.01q-3.17-1.45-3.71,4.64Z"/>
      <path class="cls-9" d="m48.79,123.17c-7.17,0-14.33-.07-21.5.03-2.96.04-5.01-.18-5.12-4.08-.12-4.32,2.55-3.82,5.18-3.82,14.33,0,28.66.02,42.99.01,2.46,0,4.74-.24,4.75,3.49.02,3.61-1.52,4.51-4.82,4.43-7.16-.17-14.33-.05-21.5-.06Z"/>
      <path class="cls-12" d="m48.15,132.81c-7.16,0-14.33-.06-21.49.03-2.74.04-4.49-.41-4.49-3.8,0-3.16,1.19-4.07,4.23-4.05,14.86.12,29.72.13,44.57.02,3.2-.02,4.07,1.3,4.13,4.25.07,3.6-2.06,3.6-4.66,3.57-7.43-.08-14.86-.03-22.29-.02Z"/>
      <path class="cls-17" d="m74.74,136.21c1.11,4.66-.22,6.52-5.48,6.38-13.73-.37-27.49-.35-41.23,0-5.24.14-6.6-1.74-5.49-6.41,17.4-1.37,34.8-1.44,52.2.02Z"/>
      <path class="cls-21" d="m74.71,145.83c1.05,4.51.08,6.63-5.36,6.51-15.06-.36-30.14-.09-45.21-.07-.72.63-1.23.49-1.53-.41-.01-2.02-.02-4.03-.03-6.05,17.38-1.43,34.76-1.51,52.14.03Z"/>
      <path class="cls-13" d="m74.8,155.48c.02,1.98.04,3.96.06,5.94-1.54,1.63-3.5,2.31-5.67,2.35-13.67.22-27.35.21-41.02,0-2.18-.03-4.13-.72-5.7-2.3.02-2.01.04-4.02.06-6.04,17.43-1.53,34.85-1.6,52.27.05Z"/>
      <path class="cls-22" d="m22.59,171.11c-.04-2.03-.08-4.06-.13-6.09,2.4-2.31,5.45-1.73,8.31-1.74,11.93-.06,23.87-.07,35.8,0,2.85.02,5.91-.61,8.27,1.8-.05,2-.09,4-.14,6.01-17.37,1.51-34.75,1.46-52.12.02Z"/>
      <path class="cls-18" d="m3.36,175.79c.01-5.72.02-11.44.03-17.16,5.21-3.41,10.41-3.48,15.59.07.03.78.09,1.56.09,2.34q.08,15.47-15.71,14.75Z"/>
      <path class="cls-15" d="m93.92,158.66c0,5.69.01,11.38.02,17.07q-16.44.89-15.62-17.09c5.21-3.43,10.41-3.48,15.6.02Z"/>
      <path class="cls-28" d="m74.85,165.09c-17.46-.02-34.92-.04-52.39-.06,0-1.19,0-2.37,0-3.56,17.46-.02,34.93-.03,52.39-.05,0,1.22,0,2.44,0,3.66Z"/>
      <path class="cls-11" d="m78.48,128.31c2.66-.04,5.34.16,7.96-.18,6.1-.8,8.93,1.33,7.54,7.72-2.87.08-5.78-.08-8.61.3-6.4.86-8.63-1.67-6.89-7.84Z"/>
      <path class="cls-12" d="m3.35,135.89c-1.1-5.72.49-8.8,7.04-7.74,2.76.45,5.65.14,8.48.17,1.24,5.76-.24,8.92-6.93,7.83-2.8-.46-5.72-.19-8.59-.26Z"/>
      <path class="cls-4" d="m78.39,118.67c3.91-.05,7.83.03,11.73-.19,3.05-.17,4.06.99,4.06,4.04,0,3.03-1.01,4.21-4.06,4.05-3.9-.21-7.82-.12-11.73-.16,0-2.58,0-5.15,0-7.73Z"/>
      <path class="cls-1" d="m3.35,145.47l.1-7.42c3.95-.02,7.92.13,11.86-.1,3.46-.21,3.72,1.73,3.87,4.41.17,3.17-1.66,3.36-3.97,3.31-3.95-.09-7.9-.13-11.85-.18Z"/>
      <path class="cls-5" d="m18.98,126.41c-3.96.03-7.93-.1-11.87.13-3.27.19-4.03-1.33-3.97-4.25.05-2.53.6-4.17,3.51-3.74,4.25.63,8.84-1.64,12.78,1.51-.15,2.11-.3,4.23-.45,6.34Z"/>
      <path class="cls-7" d="m93.83,138.12c.04,2.43.09,4.87.13,7.3-3.95.09-7.91.19-11.86.26-2.22.04-4.21-.04-4.04-3.28.14-2.7.5-4.64,3.9-4.46,3.95.21,7.92.13,11.88.18Z"/>
      <path class="cls-16" d="m3.47,155.04c0-2.01-.01-4.02-.02-6.03,5.16-1.41,10.3-1.6,15.44.1.02,1.96.04,3.92.06,5.88-5.15,2.82-10.31,2.75-15.47.05Z"/>
      <path class="cls-19" d="m93.86,149.04c0,2,.01,3.99.02,5.99-5.17,2.75-10.35,2.72-15.52,0,0-2-.02-4-.02-6,5.17-1.51,10.35-1.52,15.52,0Z"/>
      <path class="cls-31" d="m74.8,155.48c-17.42-.02-34.85-.04-52.27-.05.03-1.19.05-2.39.08-3.58.51.14,1.02.28,1.53.41,3.84,2.57,8.13,1.11,12.19,1.2,10.49.23,20.99,0,31.49.13,2.39.03,5.38-1.34,6.98,1.9Z"/>
      <path class="cls-35" d="m74.74,136.21c-17.4,0-34.8-.02-52.2-.02,1-2.37,3.14-1.48,4.79-1.49,14.22-.08,28.44-.08,42.67-.01,1.66,0,3.8-.93,4.74,1.53Z"/>
      <path class="cls-20" d="m73.71,175.59H23.2c0-.27,0-.54,0-.81h50.68c-.06.27-.12.54-.18.81Z"/>
      <path class="cls-40" d="m74.71,145.83c-17.38,0-34.76-.02-52.14-.03.48-1.62,1.84-1.67,3.15-1.67,15.3-.02,30.6-.01,45.91,0,1.31,0,2.67.03,3.09,1.7Z"/>
      <path class="cls-37" d="m22.52,112.06c17.43,0,34.86,0,52.29-.01-.66,2.06-2.42,1.71-3.92,1.71-14.81.04-29.63.05-44.44.03-1.52,0-3.26.3-3.93-1.73Z"/>
      <path class="cls-33" d="m22.59,171.11c17.37,0,34.75-.01,52.12-.02-.57,2.16-2.37,1.71-3.84,1.71-14.79.02-29.58,0-44.37-.04-1.48,0-3.27.44-3.91-1.66Z"/>
      <path class="cls-43" d="m78.36,155.03c5.17,0,10.35,0,15.52,0,.01,1.21.03,2.42.04,3.63-5.2,0-10.4-.02-15.6-.02.01-1.2.03-2.4.04-3.6Z"/>
      <path class="cls-26" d="m3.47,155.04c5.16-.02,10.32-.03,15.47-.05.01,1.23.03,2.47.04,3.7-5.2-.02-10.39-.04-15.59-.07.03-1.2.05-2.39.08-3.59Z"/>
      <path class="cls-32" d="m93.86,149.04c-5.17,0-10.35,0-15.52,0,4.88-3.61,10.32-1.13,15.51-1.45.17.48.18.97.01,1.46Z"/>
      <path class="cls-30" d="m18.89,149.1c-5.15-.03-10.29-.07-15.44-.1-.18-.49-.18-.98,0-1.47,5.15.46,10.6-2.04,15.44,1.56Z"/>
      <path class="cls-8" d="m50.79,45.86c-.29,3.41,2.03,5.03,4.4,6.76,2.08,1.51,6.9-1.54,6.57,3.1-.32,4.58.27,9.9-4.37,13.22-7.44,5.58-18.74,4-23.84-3.32-3.92-5.63-2.07-12.46,4.24-14.49,2.96-.96,5.17-2.51,6.97-4.89,1.86-1.67,3.1-5.08,6.55-2.42.27.79.12,1.48-.51,2.04Z"/>
      <path class="cls-4" d="m7.67,91.04c.72-3.49,2.89-4.6,6.34-4.34,10.48.8,20.98.34,31.52,1.16,12.14.95,24.57-1.49,36.95-1.17,3.57.09,6.28.5,7.05,4.5-.39,3.99-3.57,3.31-5.99,3.32-23.34.11-46.67.12-70.01,0-2.46-.01-5.61.54-5.87-3.47Z"/>
      <path class="cls-3" d="m59.5,29.06c-4.49-9.52-12.07-16.92-18.48-25.97,7.92-2.36,14.39-1.32,19.27,4.48,6.3,7.48,11.96,15.43,9.95,26.18-4.46.46-8.71.45-10.73-4.69Z"/>
      <path class="cls-10" d="m35.19,30.66c.76-7.56,3.73-14.47,6.13-22.52,6.64,6.81,11.21,14.04,16.12,20.99.05,7.42-5.64,6.89-10.46,7.59-3.88-2.12-8.48-2.83-11.79-6.06Z"/>
      <path class="cls-12" d="m57.57,71.47c3.33,4.34,1.49,11.69-3.42,13.67-8.91,3.6-16.74-.6-20.88-11.19-1.59-1.87-1.75-4.02-.17-5.74,2.12-2.3,4.18.05,5.44,1.17,5.96,5.28,12.29,5.09,19.04,2.09Z"/>
      <path class="cls-38" d="m50.9,44.95c-2.87-2.78-2.71,1.43-4.2,1.82-1.19-1.77-3.13,1.42-4.29-.67-1.94-3.71-1.97-9.42-8.56-8.21-1.96.36-3.89,1.5-3.31,3.63,1.53,5.53,6.29,4.5,10.41,4.56,1.11.02,2.02.45,2.76,1.28-3.07,7.33-8.93,4.78-14.28,4.05-1.12-.72-1.87-1.69-2.09-3.03-6-10.49-4.92-13.16,5.97-14.74,4.09-2.16,7.76-.58,11.41,1.25,3.03,2.55,5.59,1.15,8.6-.48,5.68-3.09,11.51-2.97,16.99.86,4.4,3.11,1.4,7.05,1.18,10.67-.05,2.69-1.69,3.41-4.03,3.25-.78-.08-1.53-.29-2.24-.62-.2-.5-.36-1.02-.27-1.53.67-3.52,2.72-7.61-2.76-9.06-4.56-1.21-6.83,1.56-8.11,5.52-.24.76-.73,1.4-1.28,1.98-.79.35-1.42.14-1.92-.55Z"/>
      <path class="cls-2" d="m67.47,48.44c1.76-.16,3.38-.54,4.02-2.5,3.99,4.53,1.01,9.85,1.61,14.77.38,3.13-.03,6.35-.08,9.53-.24,3.84-3.22,5.22-6.03,6.76-1.77,1.48-3.54,2.95-7.11,5.93,4.17-12.17,1.09-23.58,7.27-33.31-.58-.44-.72-.76-.44-.97.2-.14.45-.22.76-.22Z"/>
      <path class="cls-42" d="m28.44,49.4c5.09.46,11.21,6.24,14.45-2.82l-.07.08c1.2,3.13,2.82-7.55,3.88.12-1.64,2.75-3.39,5.17-6.75,6.3-2.14.72-6.04-1.81-6.32,2.55-.26,4.15-.17,8.48,3.83,11.33,6.27,4.46,12.78,6.39,19.92,1.97.06.84.12,1.69.18,2.53-9.04,8.42-16.14,1.24-23.7-3.34-.23,2.2-.41,4.01-.6,5.82-1.77,1.49-1.28,5.22-4.87,4.9l.08.08c.11-.68.22-1.36.33-2.03-.72-9.16-1.53-18.31-.36-27.49Z"/>
      <path class="cls-3" d="m39.63,4.64c-5.22,9.1-1.72,22.29-14.42,30.32,1.34-13.37,4.18-23.58,14.42-30.32Z"/>
      <path class="cls-14" d="m28.44,49.4c3.26,9.12,3.15,18.29.36,27.49-8.17-8.16-3.66-18.29-4.15-27.62-.01-.24,1.76-.58,2.7-.88.43.27.8.6,1.1,1.01Z"/>
      <path class="cls-34" d="m4.43,100.54c1.86,2.71,4.72,2.01,7.28,2.02,26.85.01,53.7-.03,80.55-.06-.91,3.12-3.52,1.71-5.29,1.72-25.94.11-51.87.12-77.81-.02-1.97-.01-6.82,2.23-4.73-3.65Z"/>
      <path class="cls-11" d="m78.25,76.79c3.39,1.37,5.36,4.04,7.09,7.78h-21.81c-.43-.52-.85-1.05-1.28-1.57,2.46-1.9,4.92-3.8,7.38-5.71,2.7-3.15,5.66-1.72,8.61-.5Z"/>
      <path class="cls-36" d="m7.67,91.04c1.57,2.53,4.14,1.93,6.43,1.94,22.98.04,45.96.06,68.94.02,2.28,0,4.85.63,6.5-1.81,1.45.63,1.13,1.9,1.11,3.06-.95,1.18-2.28,1.11-3.6,1.11-25.6,0-51.19,0-76.79,0-1.32,0-2.65.04-3.7-.97-.03-1.25-.35-2.6,1.11-3.35Z"/>
      <path class="cls-48" d="m6.56,94.39c28.03-.05,56.06-.1,84.09-.15.12.58.24,1.16.37,1.74-28.23-.02-56.46-.03-84.69-.05,0-.53.09-1.04.24-1.55Z"/>
      <path class="cls-12" d="m28.39,78.85c1.27,3.51,4.34,4.21,8.4,3.4-.29.71-.58,1.43-.88,2.14H12.7c3.41-8.35,7.04-9.69,15.77-5.46,0,0-.08-.07-.08-.07Z"/>
      <path class="cls-47" d="m70.31,35.28c-6.12-1.4-12.1-3.35-18.04,1.18-2.57,1.96-6.02,1.75-8.75-.75.92-.72,1.91-.85,2.98-.38,4.92.19,8.24-2.46,10.94-6.19.69-.02,1.37-.05,2.06-.07,2.64,3.7,7.75,1.76,10.73,4.69.06.51.09,1.02.08,1.53Z"/>
      <path class="cls-29" d="m67.47,48.44c-.05.41-.15.81-.32,1.18-6.43,3-12.23,3.23-16.37-3.77-.07-.32-.03-.62.11-.91.8-.02,1.61-.03,2.42-.05,3.92.82,8.02.98,11.57,3.16.86.13,1.73.25,2.59.38Z"/>
      <path class="cls-23" d="m78.25,76.79c-2.87.17-5.74.33-8.61.5-.89-.09-1.77-.19-2.66-.28,2.01-2.25,4.02-4.51,6.03-6.76,1.74,2.18,3.49,4.36,5.23,6.54Z"/>
      <path class="cls-25" d="m46.5,35.33c-.99.13-1.98.25-2.98.38-3.03-2.55-6.9-.91-10.21-2.05.62-1,1.25-1.99,1.87-2.99,4.12.7,8.45.91,11.31,4.67Z"/>
      <path class="cls-45" d="m64.89,48.06c-4.36.81-8.69,1.47-11.57-3.16-1.17-4.19,0-7.7,4.13-9.03,3.5-1.13,7.58-1.38,10.07,2.4,2.68,4.07-.33,6.9-2.63,9.79Z"/>
      <path class="cls-41" d="m42.89,46.58c-2.73.61-4.99,2.83-8.17,2.06-4.32-1.05-7.43-3.67-7.26-7.97.14-3.34,3.38-5.06,6.84-5.26,4.33-.25,8.06.65,8.75,5.79.24,1.78-.13,3.64-.23,5.46,0,0,.07-.08.07-.08Z"/>
    </g>
  </g>
</svg>