<?xml version="1.0" encoding="UTF-8"?>
<svg id="Layer_2" data-name="Layer 2" xmlns="http://www.w3.org/2000/svg" viewBox="0 0 108.96 196.83">
  <defs>
    <style>
      .cls-1 {
        fill: #f0efef;
      }

      .cls-2 {
        fill: #fcfbfb;
      }

      .cls-3 {
        fill: #7f7e7e;
      }

      .cls-4 {
        fill: #686767;
      }

      .cls-5 {
        fill: #999898;
      }

      .cls-6 {
        fill: #7c7b7b;
      }

      .cls-7 {
        fill: #9c9c9c;
      }

      .cls-8 {
        fill: #9e9b9d;
      }

      .cls-9 {
        fill: #666565;
      }

      .cls-10 {
        fill: #8d8c8c;
      }

      .cls-11 {
        fill: #b1afb2;
      }

      .cls-12 {
        fill: #c9c8c9;
      }

      .cls-13 {
        fill: #adacac;
      }

      .cls-14 {
        fill: #afadae;
      }

      .cls-15 {
        fill: #242021;
      }

      .cls-16 {
        fill: #231f20;
      }

      .cls-17 {
        fill: #545555;
      }

      .cls-18 {
        fill: #878586;
      }

      .cls-19 {
        fill: #808081;
      }

      .cls-20 {
        fill: #595556;
      }

      .cls-21 {
        fill: #636161;
      }

      .cls-22 {
        fill: #585858;
      }

      .cls-23 {
        fill: #575556;
      }

      .cls-24 {
        fill: #838182;
      }

      .cls-25 {
        fill: #4c494b;
      }

      .cls-26 {
        fill: #767577;
      }

      .cls-27 {
        fill: #767575;
      }

      .cls-28 {
        fill: #616060;
      }

      .cls-29 {
        fill: #797778;
      }

      .cls-30 {
        fill: #797777;
      }

      .cls-31 {
        fill: #504c4d;
      }
    </style>
  </defs>
  <g id="Layer_1-2" data-name="Layer 1">
    <g id="Robert">
      <path class="cls-16" d="m89.46,92.91c7.5,7.49,11.16,16.83,13.05,27.03.73,25.05,1.12,50.1-.2,75.15l-.06-.05c-2.47,1.43-5.18.74-7.78.75-26.2.06-52.39.05-78.59,0-2.62,0-5.3.48-7.85-.55-1.26-25.76-.84-51.52-.21-77.29,1.62-14.01,9.05-24.28,20.55-31.92,2.89-1,5.38-.07,7.11,2.14,5.01,6.42,11.96,8.32,19.57,8.88,10.96.53,21.76.04,31.97-4.63.88-.21,1.69-.05,2.42.46Z"/>
      <path class="cls-15" d="m23.87,63.89c-4.78-4.09-3.11,5.68-7.56,2.75-.73-3.06,3.41-5.35,2.79-8.82-4.48-1.68-4.33,2.88-6.25,4.64-.96.83-1.9,2.14-3.29,1.56-2.3-.96,0-2.07.28-2.86,1.43-3.85,3.15-7.58,4.77-11.35.18-3.18-1.78-2.36-3.38-1.69-3.04,1.29-6.03,1.76-9.09.15.43-.53.86-1.06,1.28-1.59,1.99-3.57,4.82-6.23,8.41-7.89.65-.07.48-.1-.32.04-3.8.66-5.87,8.39-11.21,2.75-.09-.52-.45-1.28-.24-1.52,3.8-4.24,4.72-10,7.73-14.65,1-3.43,4-5.42,5.87-8.22.72-1.98,2.8-2.71,3.97-4.28,1.47-2.6,4.08-1.2,6.13-1.76,2.72,1.91,4.8.82,6.63-1.42,5.61.35,11.31,2.06,16.71-1,6.77,5.87,10.86.37,15.3-3.62,3.13-1.91,5.55-.35,7.75,1.71,3,2.79,6.29,3.75,10.16,2.02,2.26-.91,3.75,2.26,6.05,1.14,2.37-.31,4.32.16,5.14,2.74,1.15.76-2.84,3.37,1.3,3.3,1.26-.02,2.41,1.8,1.74,3.64-.11.45-.21.91-.29,1.36-.66.5-1.26.44-1.82-.16-1.52-1.13-3.38-1.46-5.13-2.03,1.76.84,3.87.88,5.41,2.24,4.47,2.82,5.83,8.89,11.24,10.73.56,7.13-2.1,13.19-6.43,18.59-1.46,1.83-3.9,3.09-1.84,5.91,2.39,7.2-2.84,8.05-7.68,9.23-1.97-1.12-4.41-.26-6.34-1.54-.21-.33-.39-.67-.53-1.04-2.04-3.75-5.96.84-8.24-1.86-1.85-2.12-2.77-4.47-1.9-7.29-.23-1.52,3.7.17,2.01-2.8-1.27-2.24-2.19-4.79-1.85-7.54-.27-.89,1.08-1.64.21-2.58.05.81-.26,1.55-.42,2.35-.43,1.03-1.11,1.76-2.11,2.19-1.41,1.35-2.44-3.08-3.94-.22-.75,1.94-.98,4.74-3.7,4.37-2.02-.28-2.12-2.77-2.5-4.55-.33-1.57-.87-3.06-1.4-4.55-.95-1.79-1.64-3.82-4.12-4.25-2.35,2.04-.41,5.7-2.88,7.65-1.99,1.5-3.52,3.6-5.84,4.71-2.46-.68-2.45-2.18-1.84-3.25.14,4.17-3.49,7.48-5.71,11.5-3.12,3.74-.01,9.84-4.87,12.92-4.9,1.1-6.72-2.13-8.18-5.86Z"/>
      <path class="cls-4" d="m23.87,63.89c4.01-.48,3.43,6.52,8.1,4.98,1.93,1.45,1.83,3.67,2.25,5.73,3.8,18.57,19.25,24.07,33.62,11.98,1.02-.86,1.98-1.76,3.3-2.13,1.34.03,2.2.78,2.83,1.88-2.53,10.05-11.09,10.95-19.13,12.63-7.95-.65-15.61-1.68-20.84-8.99-1.19-1.67-2.7-4.12-5.6-3.91.83-.97,2.27-1.88,2.37-2.92.33-3.19-.22-7.16-3.12-8.23-3.43-1.27-3.14,4.48-7.47,5.35,5.3-5.07-1.82-11.65,3.69-16.37Z"/>
      <path class="cls-8" d="m8.27,194.83c31.33.07,62.66.15,93.99.22-1.29,2.57-3.68,1.59-5.62,1.6-27.81.06-55.62.06-83.43-.01-2.22,0-4.88.98-6.43-1.74.47-.63.97-.62,1.49-.06Z"/>
      <path class="cls-26" d="m95.7,56.3c-4.7.39-3.83-2.51-1.85-4.2,6.21-5.29,7.15-13.02,9.99-19.87-.58-.92-.41-1.67.51-2.25.81.99,2.51,2.54,2.3,2.87-4.21,6.53.96,12.05,2.31,18.3-4.05.93-4.93-3.04-8-3.86,2.46,5.61-4.04,5.58-5.26,9.01Z"/>
      <path class="cls-20" d="m8.27,194.83l-.74.11s-.75-.04-.75-.04c-.07-23.88-.14-47.76-.19-71.64,0-1.83-.14-3.75,1.25-5.28.14,25.62.29,51.24.43,76.85Z"/>
      <path class="cls-14" d="m102.32,195.1c.07-25.05.13-50.1.2-75.15,1.24,1.23,1.32,2.81,1.32,4.41,0,22.19.02,44.38.02,66.56,0,1.56.14,3.22-1.54,4.18Z"/>
      <path class="cls-12" d="m71.99,53.04c-.5,2.82.84,5.23,1.73,7.74,6.61,3.25,3.89,8.66,3.16,13.62.19.3.16.58-.09.83-1.5.7-.27,5.08-3.9,2.91-2.01-6.26-2.71-12.83-4.56-19.12-.42-5.49-3.58-10.22-4.35-15.62-.14-1.43-2.29-2.41-.91-4.23,3.27.5,3.3,4.12,5.45,5.67,4.69,1.24,4.86,4.4,3.47,8.21Z"/>
      <path class="cls-18" d="m81.52,9.81c-5.14,2.52-9.84,3.04-13.56-2.5-1.24-1.86-3.37-2.28-5.54-2.19,4.97-1.75,9.93-3.5,14.48-5.11,2.62,4.37-4.02,4.08-1.86,7.06,1.95,2.69,4.29-.58,6.51-.26.9,1.01.96,2.01-.04,3Z"/>
      <path class="cls-6" d="m76.88,74.39c-2.49-4.2,2.53-10.16-3.16-13.62,1.88-.4,3.77-.76,5.63-1.22,5.19-1.28,1.84,1.93,1.81,3.4-1.78,6.81,2.55,13.11,2.02,20.64-3.22-3.15-2.75-6.65-3.67-9.72-.95-3.21-1.5,1.36-2.63.52Z"/>
      <path class="cls-9" d="m2.15,48.27c2.83-.19,5.51-.65,8.18-1.91,2.97-1.4,5.18-.6,4.29,3.44-.51-.94-1.48-.85-1.8-.21-4.85,9.7-8.07,6.8-10.67-1.32Z"/>
      <path class="cls-28" d="m73.69,78.72c1.48-.77.72-3.53,3.1-3.5-1.62,5.32.63,8.52,5.38,10.85,3.01,1.48,5.66,3.71,7.3,6.84-.67,0-1.34.01-2,.02-5.65-.15-8.97-5.44-14.22-6.47-.44-.55-.87-1.11-1.31-1.66-.95-2.48-.25-4.47,1.77-6.09Z"/>
      <path class="cls-23" d="m104.35,29.98c-.17.75-.34,1.5-.51,2.25-8.12.62-8.24-6.67-11.1-11.25l-.07.09c.53-.01,1.07-.03,1.6-.04,4.37,1.84,7.93,4.61,10.08,8.95Z"/>
      <path class="cls-24" d="m94.55,19.66c-.81-.95-1.49-2.54-2.44-2.73-4.72-.92-1.2-2.72-.59-4.21,4.38.54,8.76,1.08,13.13,1.62-3.73,1.49-6.88,3.47-10.1,5.32Z"/>
      <path class="cls-17" d="m17.64,12.91c.92,2.78-1.77,3.23-2.99,4.62-2.37,3.32-5.2,4.49-8.86,1.96.26-8.85,6.91-6.18,11.85-6.59Z"/>
      <path class="cls-13" d="m.31,41.58c7.2,2.33,10.19-4.75,15.76-6.58-2.52,5.67-8.66,7.57-12.63,11.69-1.04-1.7-2.09-3.4-3.13-5.11Z"/>
      <path class="cls-29" d="m81.52,9.81c.01-1,.02-2,.04-3,5.64-.39,11.35-1.27,17.15,2.29-4.47,2.26-8.18-2.25-11.98-.33-.21.11-.49.28-.54.47-.05.22.12.49.2.74-1.73,2.9-3.24-.07-4.86-.18Z"/>
      <path class="cls-7" d="m5.79,19.5c3.15.24,6.12-.33,8.86-1.96,1.16,5.63-5.26,4.64-6.85,7.88-3.39-1.05-6.13-2.31-2.01-5.92Z"/>
      <path class="cls-30" d="m81.68,63.99c2.54-1.27,4.52-.2,6.34,1.54-1.98.53-3.31,1.03-2.06,3.74.88,1.92,3.14,3.75,1.46,7.1-3.16-3.87-4.42-8.14-5.74-12.38Z"/>
      <path class="cls-27" d="m12.85,62.46c-.36-3.33.63-6.23,3.79-7.52,2.44-1,4.63-.64,2.46,2.88-2.33,1.21-3.38,4.15-6.25,4.64Z"/>
      <path class="cls-10" d="m12.88,78.12c.81-2.98,1.61-5.96,2.42-8.93,1.94,3.81,1.76,7.08-2.42,8.93Z"/>
      <path class="cls-3" d="m101.98,59c4.26,1.89,5.48,5.38,6.03,9.14-.52.23-1.03.46-1.55.69-1.49-3.28-2.99-6.55-4.48-9.83Z"/>
      <path class="cls-21" d="m30.4,9.73c.34,3.93-2.77,4.65-5.35,4.93-3.31.36,1.25-3.04-1.28-3.51,1.88-2.04,4.45-.79,6.63-1.42Z"/>
      <path class="cls-1" d="m73.24,86.47c7.06-2.96,9.3,4.7,14.22,6.47-.63,4.47-4.81,3.59-7.39,4.33-8.22,2.35-16.75,2.28-25.25,1.69,6.65-3.4,14.73-4.69,18.41-12.48Z"/>
      <path class="cls-2" d="m73.69,78.72c-.59,2.03-1.18,4.06-1.77,6.09-6.5,8.91-15.3,12.6-25.67,8.96-11.37-3.98-14.54-13.71-14.29-24.9,3.38-3.61-.9-9.27,3.36-12.64,4.07.22,3.07,3.53,3.37,5.84.37,2.87-.86,5.67-.48,8.65,2.78-7.42.68-16.27,6.39-22.82.3-3.01,1.63-4.83,4.98-4.34,2.43.23,3.91-2.97,6.6-1.83,4.29,4.85,3.5,11.42,5.74,16.96,1.21,2.86-.3,6.43,2.33,8.84,1.89-3.07-.79-5.83-.46-8.78.23-2.07-.18-4.7,1.99-5.55,2.74-1.08,2.2,3.07,4.3,3.51.19,7.51,4.87,14.27,3.6,22.02Z"/>
      <path class="cls-19" d="m70.09,56.7c-2.57,1.49-2.56-1.75-4.59-2.54.62,5.25,1.26,10.12,1.72,15.01.09.94.65,3.04-1.71,2.09-.58-.24-.84-1.28-1.24-1.96-3.05-2.48-1.53-6.31-2.75-9.34-.4-.98-.83-1.48-.48-.48,0,.02-.44.2-.68.31-3.03-5.47-1.2-12.45-5.45-17.53-1.09-4.1.6-4.87,4.13-3.44.9,3.08,1.81,6.16,2.73,9.31.76-1.63,1.49-3.19,2.22-4.75,3.74,3.66,4.61,8.63,6.11,13.31Z"/>
      <path class="cls-5" d="m44.61,47.9c-.6,7.35-3.47,14.39-2.9,21.88.31,4.1-3.37,4.46-5.14,7.25-3.45-7.51,2.7-14.36-1.24-20.81.24-4.54,4.35-6.91,6.33-10.48,2-3.61,1.11,2.42,2.95,2.16Z"/>
      <path class="cls-31" d="m59.03,38.83c-2.48-.17-4.09.69-4.13,3.44-1.16,2.98-2.79,3.97-5.32,1.28.16-.49.46-.99.44-1.48-.07-3.19-2.07-7.07,2.45-8.75,5.05-1.88,3.45,4.73,6.55,5.5Z"/>
      <path class="cls-23" d="m92.74,20.98c-3.48-.21-6.95-.42-10.43-.63.1-.78.19-1.56.29-2.34,3.56-.63,7.17-1.69,10.07,3.06,0,0,.07-.09.07-.09Z"/>
      <path class="cls-25" d="m70.25,42.96c-.03-.26-.03-.53-.1-.78-.61-2.3-1.35-4.75,1.28-6.23.94-.53,1.71.66,2.35,1.52,2.12,2.84-.39,4.14-1.79,5.83-.72.61-1.31.5-1.74-.35Z"/>
      <path class="cls-11" d="m70.25,42.96c.58.12,1.16.23,1.74.35,1.07,2.69,2.46,5.31,3.13,8.1.85,3.56-1.56,2.07-3.13,1.64,0-3.23-.88-6.08-3.47-8.21.58-.62,1.16-1.24,1.74-1.87Z"/>
      <path class="cls-22" d="m60.36,59.8c.68-.44.43-4.19,1.92-1.06,1.49,3.13,1.39,7.01,1.99,10.57-1.18,1.55-2.69,2.01-3.15-.23-.61-3.02-.54-6.18-.77-9.28Z"/>
    </g>
  </g>
</svg>